<?xml version="1.0" encoding="UTF-8"?>
<svg xmlns="http://www.w3.org/2000/svg" xmlns:xlink="http://www.w3.org/1999/xlink" version="1.1" id="Capa_1" x="0px" y="0px" viewBox="0 0 512 512" style="enable-background:new 0 0 512 512;" xml:space="preserve" width="512" height="512">
<g>
	<g>
		<path style="fill:#EAF6FF;" d="M424.102,265.37h-43.107c-1.281,0-2.243,1.171-1.994,2.428l9.064,45.748&#10;&#9;&#9;&#9;c0.383,1.931-1.929,3.224-3.375,1.887l-51.615-47.763c-1.598-1.478-3.694-2.299-5.87-2.299H184.795&#10;&#9;&#9;&#9;c-2.177,0-4.273,0.821-5.87,2.299l-51.615,47.763c-1.445,1.337-3.757,0.044-3.375-1.887l9.064-45.748&#10;&#9;&#9;&#9;c0.249-1.257-0.713-2.428-1.994-2.428H87.898c-9.885,0-17.898-8.013-17.898-17.898V51.268c0-9.885,8.013-17.898,17.898-17.898&#10;&#9;&#9;&#9;h336.203c9.885,0,17.898,8.013,17.898,17.898v196.203C442,257.357,433.987,265.37,424.102,265.37z"/>
	</g>
	<g>
		<path style="fill:#D8ECFE;" d="M424.102,33.37h-30c9.885,0,17.898,8.013,17.898,17.898v196.203&#10;&#9;&#9;&#9;c0,9.885-8.013,17.898-17.898,17.898h30c9.885,0,17.898-8.013,17.898-17.898V51.268C442,41.383,433.987,33.37,424.102,33.37z"/>
	</g>
	<path style="fill:#6C7FD8;" d="M141.661,504.5H21.339c-7.643,0-13.839-6.196-13.839-13.839v-30.869&#10;&#9;&#9;c0-18.741,15.192-33.933,33.933-33.933h80.134c18.741,0,33.933,15.192,33.933,33.933v30.869&#10;&#9;&#9;C155.5,498.304,149.304,504.5,141.661,504.5z"/>
	<path style="fill:#4F66D0;" d="M121.567,425.859h-30c18.741,0,33.933,15.192,33.933,33.933v30.869&#10;&#9;&#9;c0,7.643-6.196,13.839-13.839,13.839h30c7.643,0,13.839-6.196,13.839-13.839v-30.869&#10;&#9;&#9;C155.5,441.051,140.308,425.859,121.567,425.859z"/>
	<path style="fill:#FE7AB6;" d="M83.288,504.5h-39v-29.863c0-4.494,3.643-8.137,8.137-8.137h22.727c4.494,0,8.137,3.643,8.137,8.137&#10;&#9;&#9;V504.5z"/>
	<circle style="fill:#EAF6FF;" cx="255.999" cy="153.258" r="17"/>
	<path style="fill:#EAF6FF;" d="M314.543,136.15l-9.502-19.129c-2.245-4.519-7.727-6.365-12.248-4.123l-14.076,6.98&#10;&#9;&#9;c-1.329,0.659-2.888-0.308-2.888-1.792v-15.698c0-5.042-4.087-9.129-9.129-9.129h-21.392c-5.046,0-9.137,4.091-9.137,9.137v15.69&#10;&#9;&#9;c0,1.484-1.559,2.451-2.888,1.792l-14.076-6.98c-4.521-2.242-10.003-0.396-12.248,4.123l-9.502,19.129&#10;&#9;&#9;c-2.244,4.518-0.399,9.999,4.12,12.24l6.205,3.077c1.482,0.735,1.482,2.849,0,3.584l-6.205,3.077&#10;&#9;&#9;c-4.519,2.241-6.364,7.722-4.12,12.24l9.504,19.134c2.244,4.517,7.723,6.362,12.242,4.121l14.081-6.982&#10;&#9;&#9;c1.329-0.659,2.888,0.308,2.888,1.792v15.69c0,5.046,4.091,9.137,9.137,9.137h21.392c5.042,0,9.129-4.087,9.129-9.129v-15.698&#10;&#9;&#9;c0-1.484,1.559-2.451,2.888-1.792l14.081,6.982c4.519,2.241,9.998,0.396,12.242-4.121l9.506-19.138&#10;&#9;&#9;c2.243-4.515,0.398-9.993-4.118-12.233l-6.209-3.079c-1.482-0.735-1.482-2.849,0-3.584l6.205-3.077&#10;&#9;&#9;C314.941,146.149,316.786,140.668,314.543,136.15z"/>
	<circle style="fill:#EAF6FF;" cx="255.999" cy="153.258" r="17"/>
	<path style="fill:#A8D3D8;" d="M314.543,136.15l-9.502-19.129c-2.245-4.519-7.727-6.365-12.248-4.123l-14.076,6.98&#10;&#9;&#9;c-1.329,0.659-2.888-0.308-2.888-1.792v-15.698c0-5.042-4.087-9.129-9.129-9.129h-21.392c-5.046,0-9.137,4.091-9.137,9.137v15.69&#10;&#9;&#9;c0,1.484-1.559,2.451-2.888,1.792l-14.076-6.98c-4.521-2.242-10.003-0.396-12.248,4.123l-9.502,19.129&#10;&#9;&#9;c-2.244,4.518-0.399,9.999,4.12,12.24l6.205,3.077c1.482,0.735,1.482,2.849,0,3.584l-6.205,3.077&#10;&#9;&#9;c-4.519,2.241-6.364,7.722-4.12,12.24l9.504,19.134c2.244,4.517,7.723,6.362,12.242,4.121l14.081-6.982&#10;&#9;&#9;c1.329-0.659,2.888,0.308,2.888,1.792v15.69c0,5.046,4.091,9.137,9.137,9.137h21.392c5.042,0,9.129-4.087,9.129-9.129v-15.698&#10;&#9;&#9;c0-1.484,1.559-2.451,2.888-1.792l14.081,6.982c4.519,2.241,9.998,0.396,12.242-4.121l9.506-19.138&#10;&#9;&#9;c2.243-4.515,0.398-9.993-4.118-12.233l-6.209-3.079c-1.482-0.735-1.482-2.849,0-3.584l6.205-3.077&#10;&#9;&#9;C314.941,146.149,316.786,140.668,314.543,136.15z"/>
	<circle style="fill:#FDB441;" cx="255.999" cy="153.258" r="17"/>
	<path style="fill:#FFCEBF;" d="M40.868,399.967v-27.225c0-22.225,18.017-40.243,40.243-40.243h0&#10;&#9;&#9;c22.225,0,40.243,18.017,40.243,40.243v27.073c0,22.267-18.051,40.318-40.318,40.318h0&#10;&#9;&#9;C58.851,440.134,40.868,422.151,40.868,399.967z"/>
	<path style="fill:#FFB09E;" d="M81.111,332.5L81.111,332.5c-5.304,0-10.363,1.036-15,2.901&#10;&#9;&#9;c14.794,5.948,25.243,20.421,25.243,37.342v27.073c0,16.959-10.475,31.462-25.304,37.418c4.632,1.865,9.687,2.901,14.986,2.901l0,0&#10;&#9;&#9;c22.267,0,40.318-18.051,40.318-40.318v-27.073C121.353,350.517,103.336,332.5,81.111,332.5z"/>
	<path style="fill:#AE6C6C;" d="M81.111,332.5L81.111,332.5c-22.226,0-40.243,18.017-40.243,40.243v7.448h80.485v-7.448&#10;&#9;&#9;C121.353,350.517,103.336,332.5,81.111,332.5z"/>
	<path style="fill:#9B5E5E;" d="M81.111,332.5L81.111,332.5c-5.304,0-10.363,1.036-15,2.901&#10;&#9;&#9;c14.794,5.948,25.243,20.421,25.243,37.342v7.448h30v-7.448C121.353,350.517,103.336,332.5,81.111,332.5z"/>
	<path style="fill:#2ABCC8;" d="M490.661,504.5H370.339c-7.643,0-13.839-6.196-13.839-13.839v-30.869&#10;&#9;&#9;c0-18.741,15.192-33.933,33.933-33.933h80.134c18.741,0,33.933,15.192,33.933,33.933v30.869&#10;&#9;&#9;C504.5,498.304,498.304,504.5,490.661,504.5z"/>
	<path style="fill:#0CACBA;" d="M470.567,425.859h-30c18.741,0,33.933,15.192,33.933,33.933v30.869&#10;&#9;&#9;c0,7.643-6.196,13.839-13.839,13.839h30c7.643,0,13.839-6.196,13.839-13.839v-30.869&#10;&#9;&#9;C504.5,441.051,489.308,425.859,470.567,425.859z"/>
	<path style="fill:#FDB441;" d="M432.288,504.5h-39v-29.863c0-4.494,3.643-8.137,8.137-8.137h22.727&#10;&#9;&#9;c4.494,0,8.137,3.643,8.137,8.137V504.5z"/>
	<path style="fill:#FFCEBF;" d="M389.868,399.967v-27.225c0-22.225,18.017-40.243,40.243-40.243h0&#10;&#9;&#9;c22.225,0,40.243,18.017,40.243,40.243v27.073c0,22.267-18.051,40.318-40.318,40.318h0&#10;&#9;&#9;C407.851,440.134,389.868,422.151,389.868,399.967z"/>
	<path style="fill:#FFB09E;" d="M430.111,332.5L430.111,332.5c-5.304,0-10.363,1.036-15,2.901&#10;&#9;&#9;c14.794,5.948,25.243,20.421,25.243,37.342v27.073c0,16.959-10.475,31.462-25.304,37.418c4.632,1.865,9.687,2.901,14.986,2.901l0,0&#10;&#9;&#9;c22.267,0,40.318-18.051,40.318-40.318v-27.073C470.353,350.517,452.336,332.5,430.111,332.5z"/>
	<path style="fill:#AE6C6C;" d="M430.111,332.5L430.111,332.5c-22.226,0-40.243,18.017-40.243,40.243v7.448h80.485v-7.448&#10;&#9;&#9;C470.353,350.517,452.336,332.5,430.111,332.5z"/>
	<path style="fill:#9B5E5E;" d="M430.111,332.5L430.111,332.5c-5.304,0-10.363,1.036-15,2.901&#10;&#9;&#9;c14.794,5.948,25.243,20.421,25.243,37.342v7.448h30v-7.448C470.353,350.517,452.336,332.5,430.111,332.5z"/>
	<path style="fill:#FE7AB6;" d="M128.722,177.5H39.278c-2.915,0-5.278-2.363-5.278-5.278V12.778C34,9.863,36.363,7.5,39.278,7.5&#10;&#9;&#9;h89.444c2.915,0,5.278,2.363,5.278,5.278v159.444C134,175.137,131.637,177.5,128.722,177.5z"/>
	<path style="fill:#FE5CA7;" d="M128.722,7.5h-30c2.915,0,5.278,2.363,5.278,5.278v159.444c0,2.915-2.363,5.278-5.278,5.278h30&#10;&#9;&#9;c2.915,0,5.278-2.363,5.278-5.278V12.778C134,9.863,131.637,7.5,128.722,7.5z"/>
	<path style="fill:#FDB441;" d="M474.498,194.944H379.5c-3.59,0-6.501-2.911-6.501-6.501v-76.998c0-3.59,2.911-6.501,6.501-6.501&#10;&#9;&#9;h94.998c3.59,0,6.501,2.911,6.501,6.501v76.998C480.999,192.033,478.088,194.944,474.498,194.944z"/>
	<path style="fill:#FE9738;" d="M474.498,104.944h-30c3.59,0,6.501,2.911,6.501,6.501v76.998c0,3.59-2.911,6.501-6.501,6.501h30&#10;&#9;&#9;c3.59,0,6.501-2.911,6.501-6.501v-76.998C480.999,107.854,478.088,104.944,474.498,104.944z"/>
	<g>
		
			<circle style="fill:none;stroke:#000000;stroke-width:15;stroke-linecap:round;stroke-linejoin:round;stroke-miterlimit:10;" cx="255.999" cy="153.258" r="17"/>
		<path style="fill:none;stroke:#000000;stroke-width:15;stroke-linecap:round;stroke-linejoin:round;stroke-miterlimit:10;" d="&#10;&#9;&#9;&#9;M314.543,136.15l-9.502-19.129c-2.245-4.519-7.727-6.365-12.248-4.123l-14.076,6.98c-1.329,0.659-2.888-0.308-2.888-1.792v-15.698&#10;&#9;&#9;&#9;c0-5.042-4.087-9.129-9.129-9.129h-21.392c-5.046,0-9.137,4.091-9.137,9.137v15.69c0,1.484-1.559,2.451-2.888,1.792l-14.076-6.98&#10;&#9;&#9;&#9;c-4.521-2.242-10.003-0.396-12.248,4.123l-9.502,19.129c-2.244,4.518-0.399,9.999,4.12,12.24l6.205,3.077&#10;&#9;&#9;&#9;c1.482,0.735,1.482,2.849,0,3.584l-6.205,3.077c-4.519,2.241-6.364,7.722-4.12,12.24l9.504,19.134&#10;&#9;&#9;&#9;c2.244,4.517,7.723,6.362,12.242,4.121l14.081-6.982c1.329-0.659,2.888,0.308,2.888,1.792v15.69c0,5.046,4.091,9.137,9.137,9.137&#10;&#9;&#9;&#9;h21.392c5.042,0,9.129-4.087,9.129-9.129v-15.698c0-1.484,1.559-2.451,2.888-1.792l14.081,6.982&#10;&#9;&#9;&#9;c4.519,2.241,9.998,0.396,12.242-4.121l9.506-19.138c2.243-4.515,0.398-9.993-4.118-12.233l-6.209-3.079&#10;&#9;&#9;&#9;c-1.482-0.735-1.482-2.849,0-3.584l6.205-3.077C314.941,146.149,316.786,140.668,314.543,136.15z"/>
		
			<circle style="fill:none;stroke:#000000;stroke-width:15;stroke-linecap:round;stroke-linejoin:round;stroke-miterlimit:10;" cx="255.999" cy="153.258" r="17"/>
		<path style="fill:none;stroke:#000000;stroke-width:15;stroke-linecap:round;stroke-linejoin:round;stroke-miterlimit:10;" d="&#10;&#9;&#9;&#9;M314.543,136.15l-9.502-19.129c-2.245-4.519-7.727-6.365-12.248-4.123l-14.076,6.98c-1.329,0.659-2.888-0.308-2.888-1.792v-15.698&#10;&#9;&#9;&#9;c0-5.042-4.087-9.129-9.129-9.129h-21.392c-5.046,0-9.137,4.091-9.137,9.137v15.69c0,1.484-1.559,2.451-2.888,1.792l-14.076-6.98&#10;&#9;&#9;&#9;c-4.521-2.242-10.003-0.396-12.248,4.123l-9.502,19.129c-2.244,4.518-0.399,9.999,4.12,12.24l6.205,3.077&#10;&#9;&#9;&#9;c1.482,0.735,1.482,2.849,0,3.584l-6.205,3.077c-4.519,2.241-6.364,7.722-4.12,12.24l9.504,19.134&#10;&#9;&#9;&#9;c2.244,4.517,7.723,6.362,12.242,4.121l14.081-6.982c1.329-0.659,2.888,0.308,2.888,1.792v15.69c0,5.046,4.091,9.137,9.137,9.137&#10;&#9;&#9;&#9;h21.392c5.042,0,9.129-4.087,9.129-9.129v-15.698c0-1.484,1.559-2.451,2.888-1.792l14.081,6.982&#10;&#9;&#9;&#9;c4.519,2.241,9.998,0.396,12.242-4.121l9.506-19.138c2.243-4.515,0.398-9.993-4.118-12.233l-6.209-3.079&#10;&#9;&#9;&#9;c-1.482-0.735-1.482-2.849,0-3.584l6.205-3.077C314.941,146.149,316.786,140.668,314.543,136.15z"/>
		<path style="fill:none;stroke:#000000;stroke-width:15;stroke-linecap:round;stroke-linejoin:round;stroke-miterlimit:10;" d="&#10;&#9;&#9;&#9;M113,425.859h8.567c18.741,0,33.933,15.192,33.933,33.933v30.869c0,7.643-6.196,13.839-13.839,13.839H21.339&#10;&#9;&#9;&#9;c-7.643,0-13.839-6.196-13.839-13.839v-30.869c0-18.741,15.192-33.933,33.933-33.933h6.4"/>
		<path style="fill:none;stroke:#000000;stroke-width:15;stroke-linecap:round;stroke-linejoin:round;stroke-miterlimit:10;" d="&#10;&#9;&#9;&#9;M83.288,504.5h-39v-29.863c0-4.494,3.643-8.137,8.137-8.137h22.727c4.494,0,8.137,3.643,8.137,8.137V504.5z"/>
		<path style="fill:none;stroke:#000000;stroke-width:15;stroke-linecap:round;stroke-linejoin:round;stroke-miterlimit:10;" d="&#10;&#9;&#9;&#9;M40.868,399.967v-27.225c0-22.225,18.017-40.243,40.243-40.243h0c22.225,0,40.243,18.017,40.243,40.243v27.073&#10;&#9;&#9;&#9;c0,22.267-18.051,40.318-40.318,40.318h0C58.851,440.134,40.868,422.151,40.868,399.967z"/>
		
			<line style="fill:none;stroke:#000000;stroke-width:15;stroke-linecap:round;stroke-linejoin:round;stroke-miterlimit:10;" x1="42.658" y1="380.191" x2="119.867" y2="380.191"/>
		<path style="fill:none;stroke:#000000;stroke-width:15;stroke-linecap:round;stroke-linejoin:round;stroke-miterlimit:10;" d="&#10;&#9;&#9;&#9;M462.333,425.859h8.234c18.741,0,33.933,15.192,33.933,33.933v30.869c0,7.643-6.196,13.839-13.839,13.839H370.339&#10;&#9;&#9;&#9;c-7.643,0-13.839-6.196-13.839-13.839v-30.869c0-18.741,15.192-33.933,33.933-33.933h8.011"/>
		<path style="fill:none;stroke:#000000;stroke-width:15;stroke-linecap:round;stroke-linejoin:round;stroke-miterlimit:10;" d="&#10;&#9;&#9;&#9;M432.288,504.5h-39v-29.863c0-4.494,3.643-8.137,8.137-8.137h22.727c4.494,0,8.137,3.643,8.137,8.137V504.5z"/>
		<path style="fill:none;stroke:#000000;stroke-width:15;stroke-linecap:round;stroke-linejoin:round;stroke-miterlimit:10;" d="&#10;&#9;&#9;&#9;M389.868,399.967v-27.225c0-22.225,18.017-40.243,40.243-40.243h0c22.225,0,40.243,18.017,40.243,40.243v27.073&#10;&#9;&#9;&#9;c0,22.267-18.051,40.318-40.318,40.318h0C407.851,440.134,389.868,422.151,389.868,399.967z"/>
		
			<line style="fill:none;stroke:#000000;stroke-width:15;stroke-linecap:round;stroke-linejoin:round;stroke-miterlimit:10;" x1="391.658" y1="380.191" x2="468.867" y2="380.191"/>
		
			<line style="fill:none;stroke:#000000;stroke-width:15;stroke-linecap:round;stroke-linejoin:round;stroke-miterlimit:10;" x1="70" y1="200" x2="70" y2="180"/>
		<path style="fill:none;stroke:#000000;stroke-width:15;stroke-linecap:round;stroke-linejoin:round;stroke-miterlimit:10;" d="&#10;&#9;&#9;&#9;M442,197.556v49.916c0,9.885-8.013,17.898-17.898,17.898h-43.107c-1.281,0-2.243,1.171-1.994,2.428l9.064,45.748&#10;&#9;&#9;&#9;c0.383,1.931-1.929,3.224-3.375,1.887l-51.615-47.763c-1.598-1.478-3.694-2.299-5.87-2.299H184.795&#10;&#9;&#9;&#9;c-2.177,0-4.273,0.821-5.87,2.299l-51.615,47.763c-1.445,1.337-3.757,0.044-3.375-1.887l9.064-45.748&#10;&#9;&#9;&#9;c0.249-1.257-0.713-2.428-1.994-2.428H87.898c-9.885,0-17.898-8.013-17.898-17.898V235.5"/>
		<path style="fill:none;stroke:#000000;stroke-width:15;stroke-linecap:round;stroke-linejoin:round;stroke-miterlimit:10;" d="&#10;&#9;&#9;&#9;M402.333,33.37h21.768c9.885,0,17.898,8.013,17.898,17.898v50.954"/>
		
			<line style="fill:none;stroke:#000000;stroke-width:15;stroke-linecap:round;stroke-linejoin:round;stroke-miterlimit:10;" x1="137" y1="33.37" x2="367.333" y2="33.37"/>
		<path style="fill:none;stroke:#000000;stroke-width:15;stroke-linecap:round;stroke-linejoin:round;stroke-miterlimit:10;" d="&#10;&#9;&#9;&#9;M128.722,177.5H39.278c-2.915,0-5.278-2.363-5.278-5.278V12.778C34,9.863,36.363,7.5,39.278,7.5h89.444&#10;&#9;&#9;&#9;c2.915,0,5.278,2.363,5.278,5.278v159.444C134,175.137,131.637,177.5,128.722,177.5z"/>
		<g>
			
				<line style="fill:none;stroke:#000000;stroke-width:15;stroke-linecap:round;stroke-linejoin:round;stroke-miterlimit:10;" x1="62.346" y1="40.5" x2="87.012" y2="40.5"/>
			
				<line style="fill:none;stroke:#000000;stroke-width:15;stroke-linecap:round;stroke-linejoin:round;stroke-miterlimit:10;" x1="62.346" y1="137.833" x2="87.012" y2="137.833"/>
			
				<line style="fill:none;stroke:#000000;stroke-width:15;stroke-linecap:round;stroke-linejoin:round;stroke-miterlimit:10;" x1="62.346" y1="64.833" x2="104" y2="64.833"/>
			
				<line style="fill:none;stroke:#000000;stroke-width:15;stroke-linecap:round;stroke-linejoin:round;stroke-miterlimit:10;" x1="62.346" y1="89.167" x2="104" y2="89.167"/>
		</g>
		<path style="fill:none;stroke:#000000;stroke-width:15;stroke-linecap:round;stroke-linejoin:round;stroke-miterlimit:10;" d="&#10;&#9;&#9;&#9;M474.498,194.944H379.5c-3.59,0-6.501-2.911-6.501-6.501v-76.998c0-3.59,2.911-6.501,6.501-6.501h94.998&#10;&#9;&#9;&#9;c3.59,0,6.501,2.911,6.501,6.501v76.998C480.999,192.033,478.088,194.944,474.498,194.944z"/>
		<g>
			
				<line style="fill:none;stroke:#000000;stroke-width:15;stroke-linecap:round;stroke-linejoin:round;stroke-miterlimit:10;" x1="408.348" y1="136.61" x2="435.348" y2="136.61"/>
			
				<line style="fill:none;stroke:#000000;stroke-width:15;stroke-linecap:round;stroke-linejoin:round;stroke-miterlimit:10;" x1="408.348" y1="163.277" x2="450.999" y2="163.277"/>
		</g>
	</g>
</g>















</svg>
