<svg xmlns="http://www.w3.org/2000/svg" viewBox="0 0 64 64"><defs><style>.cls-3{fill:#fff}.cls-4{fill:#1a9158}</style></defs><g id="_05.Vaccine" data-name="05.Vaccine"><path d="M60 11.9C59.5 38.6 43 60 32 60S4.5 38.6 4 11.9A9 9 0 0 0 11.9 4h40.2a9 9 0 0 0 7.9 7.9z" style="fill:#e6e6e6"/><path d="M37.7 58.4A12.3 12.3 0 0 1 32 60C22 60 4.5 38.6 4 11.9a9 9 0 0 0 4.9-2.1c3.7 24.1 17.7 43.1 28.8 48.6z" style="fill:#ccc"/><ellipse class="cls-3" cx="45.1" cy="9.4" rx="3.5" ry="1.6"/><ellipse class="cls-3" cx="47.4" cy="12.5" rx="1.8" ry=".8"/><path class="cls-4" d="M41.5 24.6h-19a1 1 0 0 1-1-1 10.6 10.6 0 0 1 14.3-9.9 1 1 0 1 1-.7 1.9 8.6 8.6 0 0 0-11.5 7h17a8.5 8.5 0 0 0-2.4-5 1 1 0 1 1 1.4-1.4 10.5 10.5 0 0 1 3.1 7.4 1 1 0 0 1-1.2 1z"/><path d="M19 22.5v14.6a5.9 5.9 0 0 0 6 5.9h14a5.9 5.9 0 0 0 6-5.9V22.5z" style="fill:#22b573"/><path class="cls-4" d="M30.2 43H25a5.9 5.9 0 0 1-6-5.9V22.5h5.3v14.6a5.9 5.9 0 0 0 5.9 5.9z"/><path class="cls-3" d="M32 40a1 1 0 0 1-1-1v-6.9a1 1 0 0 1 2 0V39a1 1 0 0 1-1 1z"/><circle class="cls-3" cx="32" cy="29.4" r="2.7"/></g></svg>