<?xml version="1.0" encoding="UTF-8"?>
<svg version="1.1" xmlns="http://www.w3.org/2000/svg" width="1024" height="1024">
<path d="M0 0 C337.92 0 675.84 0 1024 0 C1024 337.92 1024 675.84 1024 1024 C686.08 1024 348.16 1024 0 1024 C0 686.08 0 348.16 0 0 Z " fill="#FAF9F7" transform="translate(0,0)"/>
<path d="M0 0 C6.17566707 4.80426717 10.86121221 10.25463244 15.5 16.4921875 C17.72884884 19.09732778 17.72884884 19.09732778 20.9296875 19.9296875 C24.46194205 19.89235852 25.38253745 19.31914609 27.88671875 16.8984375 C28.57378906 16.24488281 29.26085937 15.59132813 29.96875 14.91796875 C31.6061088 13.19390664 33.09663239 11.44512274 34.57421875 9.5859375 C44.44383556 -2.32752366 59.74826692 -10.53687726 74.88671875 -13.1015625 C90.863098 -14.4588872 107.15966606 -9.78528881 119.53417969 0.53393555 C132.56616433 12.08050533 140.58827908 27.61897761 141.88671875 45.0859375 C142.60592916 61.75627584 140.1065285 79.42437649 128.76904297 92.30419922 C124.04965243 97.30364362 119.09395285 102.0288709 114.09082031 106.7409668 C111.40488739 109.37007504 108.96694272 112.15717769 106.52856445 115.01416016 C103.91454062 118.01416551 101.09600648 120.79572362 98.26171875 123.5859375 C97.71515625 124.12798828 97.16859375 124.67003906 96.60546875 125.22851562 C95.53273566 126.29226651 94.45903403 127.35504174 93.38427734 128.41674805 C92.02639137 129.76024495 90.67492935 131.1102269 89.32421875 132.4609375 C87.63475546 134.15040079 85.93899475 135.8335811 84.23828125 137.51171875 C83.33851563 138.40246094 82.43875 139.29320312 81.51171875 140.2109375 C80.61710938 141.09394531 79.7225 141.97695313 78.80078125 142.88671875 C76.61397939 145.09763836 74.5629124 147.39598856 72.53125 149.75 C68.84492577 154.00256055 64.93902655 157.99421442 60.94921875 161.9609375 C60.28470703 162.62931641 59.62019531 163.29769531 58.93554688 163.98632812 C55.65930019 167.25621934 52.33773161 170.41789315 48.83203125 173.44140625 C44.26581583 177.380109 40.09715559 181.6640177 35.91210938 186 C32.08271215 189.90181075 28.66660032 193.32982536 23.13671875 194.4609375 C14.54161102 192.9733227 8.53617949 185.81956311 2.7578125 179.77734375 C0.68321038 177.63917251 -1.48897798 175.68502653 -3.75341797 173.74951172 C-8.27105663 169.81519426 -12.51322631 165.64277877 -16.7421875 161.40234375 C-17.53551987 160.60996811 -18.32885223 159.81759247 -19.14622498 159.00120544 C-20.81217206 157.33593467 -22.47687381 155.66941721 -24.14038086 154.00170898 C-26.66864259 151.46809128 -29.20219786 148.93985583 -31.73632812 146.41210938 C-33.36360195 144.78417467 -34.9905655 143.15592975 -36.6171875 141.52734375 C-37.3652919 140.78126358 -38.1133963 140.03518341 -38.88417053 139.26649475 C-42.94190066 135.19086107 -46.83513266 131.03068922 -50.57478333 126.66055298 C-53.00126624 123.88138569 -55.60836583 121.2959856 -58.23828125 118.7109375 C-58.73714844 118.21658203 -59.23601562 117.72222656 -59.75 117.21289062 C-60.73865386 116.23327146 -61.72838173 115.2547349 -62.71923828 114.27734375 C-63.98185252 113.02843916 -65.23559743 111.77058357 -66.48828125 110.51171875 C-68.59166565 108.41772446 -70.71579276 106.35335613 -72.85546875 104.296875 C-80.35079422 97.03656634 -87.30247817 90.26526593 -92.11328125 80.8984375 C-92.51675781 80.14433594 -92.92023438 79.39023437 -93.3359375 78.61328125 C-99.84203267 65.39121688 -100.71159526 46.21148191 -96.01953125 32.265625 C-95.72046875 31.48445312 -95.42140625 30.70328125 -95.11328125 29.8984375 C-94.83484375 29.07601562 -94.55640625 28.25359375 -94.26953125 27.40625 C-88.07812681 10.27313943 -76.19887908 -1.28426262 -60.11328125 -9.1015625 C-39.23918304 -17.73912038 -18.09279776 -12.21320602 0 0 Z " fill="#F3363E" transform="translate(490.11328125,482.1015625)"/>
<path d="M0 0 C17.04221726 -0.49187013 33.65368693 1.04242147 50.55322266 3.08251953 C49.21663907 6.52524561 47.75161489 9.48394153 45.74072266 12.58251953 C33.64279638 32.55885145 31.5391753 57.51930641 36.55322266 80.08251953 C42.14260364 99.31984826 52.75214645 115.08671248 68.01928711 128.04077148 C73.2060951 132.56695869 78.03049196 137.44721479 82.87642479 142.33055687 C84.56884747 144.03591301 86.26452314 145.73797646 87.96101379 147.43928528 C91.55709452 151.04670363 95.14919661 154.65806729 98.74072266 158.27001953 C102.9169261 162.46989839 107.09478459 166.66810355 111.27688026 170.86211586 C112.94123433 172.5329152 114.60253105 174.20671329 116.26371765 175.88066101 C117.28869993 176.90927727 118.31382368 177.93775258 119.33911133 178.96606445 C120.22765305 179.85984299 121.11619476 180.75362152 122.03166199 181.67448425 C124.51255007 184.11491195 124.51255007 184.11491195 127.23457336 186.22261047 C131.02572055 189.26368659 133.23279654 192.33797732 134.11572266 197.14501953 C133.34648109 201.16216995 131.71099919 202.55629831 128.55322266 205.08251953 C124.25736472 207.30810371 120.18631094 207.36938925 115.45097351 207.34994507 C114.23409173 207.35674174 114.23409173 207.35674174 112.99262649 207.36367571 C110.27668317 207.37632684 107.56094021 207.37469888 104.8449707 207.37304688 C102.89664451 207.3790317 100.9483207 207.38583714 99 207.3934021 C93.70859269 207.41107445 88.41725007 207.41575802 83.12581611 207.41703367 C79.81924565 207.41845518 76.51269164 207.42272478 73.20612526 207.42802811 C61.66857484 207.44653278 50.13107063 207.45469821 38.59350586 207.453125 C27.84223617 207.45192362 17.09116724 207.47302415 6.33994836 207.50461233 C-2.89333169 207.530773 -12.12654616 207.54149237 -21.35986298 207.54021418 C-26.87323862 207.53970447 -32.38643586 207.54539287 -37.89977455 207.56657028 C-43.0864603 207.5859489 -48.27279743 207.58607956 -53.45949554 207.57153702 C-55.36057482 207.56944734 -57.26167589 207.5741593 -59.16271782 207.58625793 C-61.76341219 207.60173416 -64.36290802 207.59238703 -66.96357727 207.57699585 C-67.71116265 207.58728298 -68.45874803 207.5975701 -69.22898751 207.60816896 C-75.54292781 207.52591726 -80.63839603 205.457174 -85.47021484 201.37158203 C-86.13923828 200.54787109 -86.13923828 200.54787109 -86.82177734 199.70751953 C-87.28326172 199.16353516 -87.74474609 198.61955078 -88.22021484 198.05908203 C-91.90247016 192.12525658 -91.74340689 186.10515655 -91.73730469 179.3581543 C-91.74402191 178.28897263 -91.75073914 177.21979095 -91.75765991 176.11820984 C-91.77664005 172.58673434 -91.780565 169.05544911 -91.78271484 165.52392578 C-91.78914573 163.05736718 -91.7958743 160.59080934 -91.80288696 158.12425232 C-91.81486192 152.95024856 -91.81856785 147.77631156 -91.81738281 142.60229492 C-91.8171803 136.0055435 -91.84441187 129.40922615 -91.87892723 122.81257725 C-91.90128742 117.71384254 -91.90521746 112.6152105 -91.90416336 107.51643181 C-91.90650832 105.08661347 -91.91526877 102.65679182 -91.93082809 100.22702217 C-92.00617324 87.23850846 -91.88395174 75.40538884 -87.44677734 63.08251953 C-87.1917897 62.33662064 -86.93680206 61.59072174 -86.67408752 60.82221985 C-77.8620845 36.60998946 -60.03007297 18.76550541 -37.27880859 7.51611328 C-25.23741104 2.18735743 -13.05459855 0.44027682 0 0 Z " fill="#12344E" transform="translate(337.44677734375,475.91748046875)"/>
<path d="M0 0 C15.92171781 14.91395005 29.06742863 36.87364976 29.92956543 59.06570435 C29.95302694 61.0179643 29.96086679 62.97045922 29.95507812 64.92285156 C29.96354767 66.00094086 29.97201721 67.07903015 29.98074341 68.18978882 C30.0039245 71.71274986 30.00514042 75.23526963 30.00390625 78.75830078 C30.01101671 81.22826305 30.01871698 83.69822368 30.02697754 86.16818237 C30.04037711 91.32733768 30.04201032 96.48634004 30.03613281 101.64550781 C30.0302261 108.24045051 30.0608909 114.83465976 30.10124969 121.42946053 C30.12715004 126.52371135 30.13000221 131.61778576 30.12635803 136.71209335 C30.12804552 139.14325689 30.13765207 141.5744289 30.15550232 144.0055275 C30.17774873 147.40815184 30.16796131 150.80929285 30.15039062 154.21191406 C30.16365387 155.20439148 30.17691711 156.1968689 30.19058228 157.21942139 C30.09833245 164.94577947 28.08282733 171.62760094 22.72115326 177.38632393 C17.08666395 182.57188247 11.91064567 183.73611332 4.33006287 183.70541382 C3.09669704 183.71221049 3.09669704 183.71221049 1.83841473 183.71914446 C-0.91450278 183.73179657 -3.66722266 183.73016759 -6.42016602 183.72851562 C-8.39468643 183.7345002 -10.3692045 183.74130558 -12.34371948 183.74887085 C-17.70510375 183.76654112 -23.06642418 183.77122655 -28.42783475 183.77250242 C-32.90130633 183.77440119 -37.37476302 183.78175812 -41.84822887 183.78884661 C-52.39842002 183.8051306 -62.94857703 183.8100154 -73.4987793 183.80859375 C-84.39100055 183.80739098 -95.28302409 183.82851987 -106.17519528 183.86008108 C-115.52221218 183.88620234 -124.86916432 183.89696286 -134.21621746 183.89568293 C-139.80100547 183.89517225 -145.38561762 183.90091423 -150.97036934 183.92203903 C-156.2194205 183.94135258 -161.46812672 183.9415932 -166.71718979 183.92700577 C-168.64575006 183.92490828 -170.57433155 183.92967413 -172.5028553 183.94172668 C-175.13122476 183.9570921 -177.7583917 183.94792953 -180.38673401 183.9324646 C-181.15375265 183.94275173 -181.92077129 183.95303885 -182.71103293 183.96363771 C-186.22242327 183.91783011 -188.09328085 183.7320707 -190.88769436 181.52036476 C-193.34455314 178.27647109 -194.41333573 176.58427415 -194.60009766 172.42797852 C-193.61672775 166.36908474 -188.19375538 162.46277451 -183.98828125 158.41064453 C-183.01860437 157.45472591 -182.05033424 156.49737839 -181.08340454 155.53868103 C-178.53761908 153.0213943 -175.974814 150.52218946 -173.4074707 148.0269165 C-170.31200824 145.01280575 -167.23491703 141.97997208 -164.15729713 138.9476614 C-161.75760878 136.58338926 -159.35397494 134.22382224 -156.94076538 131.87330627 C-152.40003008 127.4332138 -148.0200935 122.95065322 -143.91682434 118.10087585 C-141.72103828 115.58614158 -139.27233592 113.40111941 -136.77734375 111.18798828 C-116.39861658 92.75393154 -97.80606648 71.95151108 -96.34057617 42.98144531 C-95.67980282 21.11250668 -98.90450291 1.84783494 -111.828125 -16.17138672 C-113.46484375 -18.56201172 -113.46484375 -18.56201172 -114.46484375 -21.56201172 C-75.11201142 -27.46207246 -31.54502252 -27.82375868 0 0 Z " fill="#11344D" transform="translate(748.46484375,499.56201171875)"/>
<path d="M0 0 C13.5778657 10.47901347 23.11506695 22.75897984 30.125 38.375 C30.39932861 38.98311523 30.67365723 39.59123047 30.95629883 40.21777344 C35.23442703 50.30240743 36.76597865 60.21860016 36.625 71.125 C36.61484863 72.26686768 36.60469727 73.40873535 36.59423828 74.58520508 C36.11707522 100.54250587 25.21013795 120.25911034 7.22265625 138.28125 C-10.4360164 154.70792223 -32.99526853 160.12337668 -56.4453125 159.52734375 C-79.23967317 158.55090562 -99.3826184 148.09515523 -114.89453125 131.546875 C-132.0855479 112.26308962 -138.73944043 88.90425581 -137.88623047 63.47753906 C-136.54970948 41.62374429 -124.96288666 22.26840374 -109.75 7.25 C-108.925 6.42628906 -108.1 5.60257812 -107.25 4.75390625 C-77.87776569 -23.15913052 -32.19032923 -22.13661609 0 0 Z " fill="#12354F" transform="translate(708.75,290.75)"/>
<path d="M0 0 C0.99220551 0.00555908 0.99220551 0.00555908 2.00445557 0.01123047 C22.03885588 0.17108424 40.0048519 6.03093526 55.1875 19.4375 C55.99445313 20.10265625 56.80140625 20.7678125 57.6328125 21.453125 C70.68910523 32.5529702 81.13250743 48.60775641 85.1875 65.4375 C85.38988281 66.2521875 85.59226562 67.066875 85.80078125 67.90625 C91.07273342 93.4411476 85.24760078 117.81882149 71.1875 139.4375 C57.51702084 158.8975291 37.33519995 170.48150472 14.15161133 174.61279297 C-7.42723747 178.03519578 -30.41603742 172.360833 -48.24609375 159.7109375 C-50.479143 158.00131801 -52.64847686 156.23326681 -54.8125 154.4375 C-55.68455078 153.78394531 -55.68455078 153.78394531 -56.57421875 153.1171875 C-72.68029727 140.5777231 -82.64357964 119.19768797 -85.8125 99.4375 C-87.8381852 74.7733837 -82.95741092 51.88014631 -67.2890625 32.28125 C-49.40204115 11.74220972 -27.68017061 -0.22455709 0 0 Z " fill="#12364F" transform="translate(364.8125,275.5625)"/>
<path d="M0 0 C5.78557633 3.10257051 10.23725611 8.11643797 14.7734375 12.76953125 C17.43367434 15.43443517 20.24511907 17.87031952 23.1015625 20.3203125 C25.59234411 22.52409046 27.89707999 24.88616741 30.2265625 27.2578125 C32.04800415 29.04715827 33.93714279 30.71288532 35.875 32.375 C38.8846753 34.96634205 41.71088616 37.67254783 44.5 40.5 C47.88241399 43.9288279 51.38070442 47.12048518 55.03515625 50.25390625 C57.81561832 52.72481389 60.39118218 55.3816694 63 58.03125 C64.93891002 59.93986455 66.93699551 61.72710552 69 63.5 C72.51001511 66.51641923 75.75051276 69.73095132 78.99609375 73.02734375 C80.95678234 74.9574563 82.97819714 76.76734898 85.0625 78.5625 C97.03396693 88.9283264 97.03396693 88.9283264 98 94 C98.09594487 102.58706567 94.77643993 107.28236796 88.953125 113.27734375 C87.39058338 114.83592623 85.82272215 116.38919102 84.25 117.9375 C83.08984375 119.09668945 83.08984375 119.09668945 81.90625 120.27929688 C77.65592676 124.49752875 73.32360105 128.55999624 68.76660156 132.44555664 C66.93082309 134.06086918 65.21159436 135.75431729 63.5 137.5 C61.12957643 139.91332717 58.69263692 142.17271853 56.125 144.375 C52.37766297 147.60147165 48.91098784 151.04559715 45.46875 154.59375 C42.76937062 157.22479066 39.95162903 159.67858519 37.10546875 162.1484375 C33.74557099 165.10315278 30.50159172 168.17721353 27.25 171.25 C25.84916306 172.56402037 24.44811952 173.87782053 23.046875 175.19140625 C20.54484911 177.54074017 18.05539681 179.90194791 15.578125 182.27734375 C3.3314522 193.93060734 3.3314522 193.93060734 -5.5 194.5625 C-10.57193652 194.30802568 -14.23341125 192.33334262 -18 189 C-21.11270957 184.81729651 -21.65618369 180.68698082 -21.46484375 175.58203125 C-20.04354221 167.68723864 -14.1167448 163.00958456 -8.03125 158.41796875 C-4.20406016 155.36509438 -0.67675032 152.05332989 2.875 148.6875 C3.56480957 148.03475098 4.25461914 147.38200195 4.96533203 146.70947266 C6.3356849 145.4120418 7.70564657 144.11419762 9.07519531 142.81591797 C11.77627717 140.26763704 14.50787917 137.75397365 17.25 135.25 C18.20519531 134.37730469 19.16039062 133.50460937 20.14453125 132.60546875 C21.08683594 131.74566406 22.02914062 130.88585937 23 130 C27.00286486 126.33645084 31.00266587 122.66958242 35 119 C35.56460938 118.48195801 36.12921875 117.96391602 36.7109375 117.43017578 C38.45427428 115.82969576 40.19607875 114.2275638 41.9375 112.625 C42.46915771 112.13717041 43.00081543 111.64934082 43.54858398 111.14672852 C46.01986228 108.8696137 48.41872651 106.56642503 50.75390625 104.1484375 C53 102 53 102 55 102 C55.66 100.35 56.32 98.7 57 97 C56.319375 96.37996094 55.63875 95.75992188 54.9375 95.12109375 C48.24233086 89.00462939 41.60481328 82.83057863 34.99609375 76.62084961 C30.33579348 72.24461945 25.65044844 67.89722558 20.94482422 63.56982422 C15.83644754 58.86519698 10.77766569 54.10804582 5.73046875 49.33789062 C2.50080407 46.29684366 -0.76282705 43.31407903 -4.11328125 40.40625 C-7.483501 37.47664084 -10.70594132 34.45911492 -13.875 31.3125 C-14.80054688 30.40113281 -15.72609375 29.48976563 -16.6796875 28.55078125 C-20.92314614 23.88583429 -21.39485018 20.57267623 -21.25 14.3984375 C-20.66886935 8.8232153 -16.94450803 5.65588549 -13 2 C-12.13375 1.071875 -12.13375 1.071875 -11.25 0.125 C-7.44797711 -1.77601145 -3.99878261 -1.17182868 0 0 Z " fill="#12344D" transform="translate(809,451)"/>
<path d="M0 0 C2.60546875 1.828125 2.60546875 1.828125 5.1875 4.25 C6.04730469 5.03890625 6.90710938 5.8278125 7.79296875 6.640625 C11.19815513 10.28085965 12.29753748 12.9019064 12.375 17.875 C12.40335937 18.69742187 12.43171875 19.51984375 12.4609375 20.3671875 C11.20750482 27.52662501 4.69652999 32.57269529 -0.25 37.4375 C-1.33861328 38.52514648 -1.33861328 38.52514648 -2.44921875 39.63476562 C-6.51719536 43.6701114 -10.68397689 47.53131742 -15.02197266 51.27368164 C-18.44804062 54.26377379 -21.75091886 57.3843514 -25.0625 60.5 C-25.73087891 61.12519531 -26.39925781 61.75039063 -27.08789062 62.39453125 C-30.35848534 65.46488548 -33.58531737 68.56648422 -36.74609375 71.75 C-39.08590274 74.10604156 -41.46183665 76.35568958 -44 78.5 C-47.22415933 81.27773727 -50.22568767 84.19639313 -53.19921875 87.23828125 C-55.77083605 89.7541151 -58.52427744 92.03864881 -61.30078125 94.32421875 C-63.1058908 96.10443024 -63.92753375 97.7258794 -65 100 C-64.09121094 100.84820313 -63.18242187 101.69640625 -62.24609375 102.5703125 C-61.64611572 103.13032959 -61.0461377 103.69034668 -60.42797852 104.26733398 C-59.08616999 105.5196118 -57.74420703 106.77172417 -56.40209961 108.02368164 C-52.91292578 111.27891715 -49.42610457 114.53658312 -45.9453125 117.80078125 C-40.26558452 123.12265312 -34.5900518 128.42040804 -28.6875 133.49609375 C-26.26787783 135.65246999 -24.02313743 137.96868855 -21.75 140.27734375 C-20.05280803 141.9480171 -18.30540533 143.51000705 -16.5 145.0625 C-11.71511107 149.18256092 -7.13498288 153.51761956 -2.54296875 157.84985352 C1.07817941 161.25371377 4.7576624 164.54008859 8.58984375 167.70556641 C11.85359089 170.70147835 12.13705481 174.1015912 12.375 178.3125 C12.20549594 184.66890229 9.95024682 189.09732017 5.4375 193.5 C0.43503857 195.68289226 -3.64065637 196.15200844 -9 195 C-16.54150739 191.16010696 -22.41132202 184.86653232 -28.19921875 178.80859375 C-30.99655668 176.00345292 -33.91074078 173.42618216 -36.9050293 170.83666992 C-40.37574675 167.79387684 -43.71382214 164.61326918 -47.0625 161.4375 C-48.55048574 160.03093732 -50.0387732 158.62469377 -51.52734375 157.21875 C-52.27097168 156.51621094 -53.01459961 155.81367187 -53.78076172 155.08984375 C-57.80583894 151.299452 -61.85714664 147.5370204 -65.91430664 143.78100586 C-69.48101431 140.46562466 -72.95347218 137.07551693 -76.36865234 133.60400391 C-78.02445416 131.97595573 -79.7386794 130.45014841 -81.5 128.9375 C-85.64261289 125.35645939 -89.67134027 121.65895362 -93.6875 117.9375 C-94.32945312 117.34767334 -94.97140625 116.75784668 -95.6328125 116.15014648 C-105.56864658 106.9076002 -105.56864658 106.9076002 -106.62890625 102.21875 C-106.59603516 100.87296875 -106.59603516 100.87296875 -106.5625 99.5 C-106.56378906 98.6028125 -106.56507812 97.705625 -106.56640625 96.78125 C-105.17294519 89.9388757 -99.55036635 85.27184144 -94.75 80.5625 C-94.11964844 79.93279297 -93.48929688 79.30308594 -92.83984375 78.65429688 C-89.02249204 74.87193108 -85.08259701 71.28462015 -81.01806641 67.77075195 C-77.5299998 64.71014863 -74.17828446 61.50622158 -70.8125 58.3125 C-65.7129712 53.49261025 -60.60322975 48.68641499 -55.4375 43.9375 C-50.48010708 39.375347 -45.54507102 34.78989089 -40.625 30.1875 C-39.97072021 29.57704834 -39.31644043 28.96659668 -38.64233398 28.33764648 C-34.86756947 24.80148057 -31.18132254 21.19397806 -27.53613281 17.5246582 C-25.77222808 15.77392949 -23.94871943 14.11793877 -22.0625 12.5 C-19.98175968 10.71362798 -17.91604339 8.92335073 -15.890625 7.07421875 C-10.96523412 2.6024823 -6.99021859 -0.78461637 0 0 Z " fill="#13354E" transform="translate(224,450)"/>
<path d="M0 0 C0 0.33 0 0.66 0 1 C-7.4451315 2.06584597 -14.56234873 1.93902231 -22.0625 1.5625 C-23.79016602 1.48418945 -23.79016602 1.48418945 -25.55273438 1.40429688 C-28.36884135 1.27576087 -31.18448692 1.1408555 -34 1 C-34 0.67 -34 0.34 -34 0 C-22.73363871 -1.33668693 -11.2269281 -1.83237428 0 0 Z " fill="#041731" transform="translate(689,476)"/>
<path d="M0 0 C0.33 0 0.66 0 1 0 C1.0544207 2.68777802 1.09387266 5.37443212 1.125 8.0625 C1.14175781 8.81466797 1.15851562 9.56683594 1.17578125 10.34179688 C1.21865121 15.29327709 0.58399375 19.30414451 -1 24 C-1.66 24 -2.32 24 -3 24 C-2.88985294 20.74931846 -2.75928788 17.49976672 -2.625 14.25 C-2.5940625 13.32960938 -2.563125 12.40921875 -2.53125 11.4609375 C-2.49257813 10.57148437 -2.45390625 9.68203125 -2.4140625 8.765625 C-2.3826416 7.94868164 -2.3512207 7.13173828 -2.31884766 6.29003906 C-1.97656307 3.83167042 -1.2260723 2.14240001 0 0 Z " fill="#284258" transform="translate(655,526)"/>
<path d="M0 0 C3.63 0 7.26 0 11 0 C11 0.33 11 0.66 11 1 C8.69 1.66 6.38 2.32 4 3 C4.66708984 4.04800781 4.66708984 4.04800781 5.34765625 5.1171875 C5.91355469 6.02726562 6.47945312 6.93734375 7.0625 7.875 C7.63097656 8.77992188 8.19945312 9.68484375 8.78515625 10.6171875 C9.38650391 11.79667969 9.38650391 11.79667969 10 13 C9.67 13.66 9.34 14.32 9 15 C7.68325862 13.06537998 6.37174202 11.12720303 5.0625 9.1875 C4.33160156 8.10855469 3.60070312 7.02960938 2.84765625 5.91796875 C1 3 1 3 0 0 Z " fill="#101E33" transform="translate(634,478)"/>
<path d="M0 0 C3.3 0 6.6 0 10 0 C8.650967 3.60172447 7.04283018 6.8294887 5.0625 10.125 C4.55847656 10.97320312 4.05445313 11.82140625 3.53515625 12.6953125 C2.16808288 14.74766184 0.81325308 16.3437151 -1 18 C0.6658292 11.83643195 3.87805286 6.51740344 7 1 C4.69 1 2.38 1 0 1 C0 0.67 0 0.34 0 0 Z " fill="#101D34" transform="translate(378,479)"/>
<path d="M0 0 C1.10313617 3.3094085 0.89941114 4.19482294 0.00390625 7.44921875 C-0.33930664 8.72055664 -0.33930664 8.72055664 -0.68945312 10.01757812 C-0.93630859 10.89865234 -1.18316406 11.77972656 -1.4375 12.6875 C-1.68048828 13.58017578 -1.92347656 14.47285156 -2.17382812 15.39257812 C-2.77509306 17.59721622 -3.38406657 19.79942345 -4 22 C-4.33 22 -4.66 22 -5 22 C-5.33 19.36 -5.66 16.72 -6 14 C-5.34 14 -4.68 14 -4 14 C-3.81824219 13.11248047 -3.81824219 13.11248047 -3.6328125 12.20703125 C-2.73255357 7.96196415 -1.79543379 3.97560339 0 0 Z " fill="#081931" transform="translate(376,498)"/>
<path d="M0 0 C0.8353125 0.19916016 0.8353125 0.19916016 1.6875 0.40234375 C6.7858701 1.58220305 11.79787441 2.43249539 17 3 C16.67 3.66 16.34 4.32 16 5 C10.01488629 4.65697965 5.24882694 4.17692157 0 1 C0 0.67 0 0.34 0 0 Z " fill="#142942" transform="translate(626,443)"/>
<path d="M0 0 C0 0.66 0 1.32 0 2 C-0.99 2 -1.98 2 -3 2 C-3.226875 2.61875 -3.45375 3.2375 -3.6875 3.875 C-5.37929835 6.61410209 -6.99244161 7.05024472 -10 8 C-4.95652174 0 -4.95652174 0 0 0 Z " fill="#142942" transform="translate(803,450)"/>
<path d="M0 0 C3.96 0.33 7.92 0.66 12 1 C12 1.33 12 1.66 12 2 C5.93303301 2.77040851 0.11485027 3.09706112 -6 3 C-6 2.67 -6 2.34 -6 2 C-4.02 2 -2.04 2 0 2 C0 1.34 0 0.68 0 0 Z " fill="#0D243D" transform="translate(677,475)"/>
<path d="M0 0 C0.66 0.33 1.32 0.66 2 1 C0.71451591 2.33929505 -0.57858155 3.67128643 -1.875 5 C-2.59429687 5.7425 -3.31359375 6.485 -4.0546875 7.25 C-6 9 -6 9 -8 9 C-7.67 7.35 -7.34 5.7 -7 4 C-6.401875 3.896875 -5.80375 3.79375 -5.1875 3.6875 C-2.71756736 2.91123545 -1.67748765 1.92911079 0 0 Z " fill="#0C213A" transform="translate(196,510)"/>
<path d="M0 0 C5.28089024 -0.30466674 6.577168 -0.317124 11 3 C7.04 3 3.08 3 -1 3 C-0.67 2.01 -0.34 1.02 0 0 Z " fill="#1E3F57" transform="translate(352,476)"/>
<path d="M0 0 C-1.75864246 2.1793144 -2.69396 2.93686419 -5.48046875 3.51171875 C-6.37378906 3.56972656 -7.26710938 3.62773437 -8.1875 3.6875 C-9.08855469 3.75324219 -9.98960937 3.81898438 -10.91796875 3.88671875 C-11.94857422 3.94279297 -11.94857422 3.94279297 -13 4 C-8.54482758 0.54515735 -5.63408126 -0.15650226 0 0 Z " fill="#11223A" transform="translate(347,278)"/>
<path d="M0 0 C2.0625 1.5 2.0625 1.5 4 4 C4.05928384 6.82406647 3.55954815 9.20225927 3 12 C0.60926555 8.17482487 0.44033448 4.40334476 0 0 Z " fill="#0A1C34" transform="translate(650,508)"/>
<path d="M0 0 C0.70125 0.495 1.4025 0.99 2.125 1.5 C5.37119719 3.1936681 7.39340156 3.25162315 11 3 C10.67 3.66 10.34 4.32 10 5 C6.7 5 3.4 5 0 5 C0 3.33333333 0 1.66666667 0 0 Z " fill="#F21F1F" transform="translate(505,499)"/>
<path d="M0 0 C1 2 1 2 0.9375 4 C0 6 0 6 -3.0625 7.25 C-4.031875 7.4975 -5.00125 7.745 -6 8 C-4.02 5.36 -2.04 2.72 0 0 Z " fill="#101E35" transform="translate(638,583)"/>
<path d="M0 0 C0.99 0 1.98 0 3 0 C3.66 3.3 4.32 6.6 5 10 C4.34 10 3.68 10 3 10 C2.01 6.7 1.02 3.4 0 0 Z " fill="#14253E" transform="translate(282,386)"/>
<path d="M0 0 C0.99 0.66 1.98 1.32 3 2 C1.02 3.98 -0.96 5.96 -3 8 C-3.66 7.67 -4.32 7.34 -5 7 C-4.360625 6.21625 -3.72125 5.4325 -3.0625 4.625 C-1.01857687 2.20460719 -1.01857687 2.20460719 0 0 Z " fill="#1E3F56" transform="translate(822,590)"/>
</svg>
