<?xml version="1.0" encoding="UTF-8"?>
<svg version="1.1" xmlns="http://www.w3.org/2000/svg" width="1024" height="1024">
<path d="M0 0 C337.92 0 675.84 0 1024 0 C1024 337.92 1024 675.84 1024 1024 C686.08 1024 348.16 1024 0 1024 C0 686.08 0 348.16 0 0 Z " fill="#FAF9F8" transform="translate(0,0)"/>
<path d="M0 0 C4.9967617 4.28895735 9.37378635 9.04439031 13.56640625 14.11328125 C17.92773674 12.47384136 20.52112781 9.17511272 23.62890625 5.86328125 C29.0571927 0.26082929 34.33111664 -3.78265534 41.56640625 -6.88671875 C42.32050781 -7.21027344 43.07460938 -7.53382813 43.8515625 -7.8671875 C55.40342138 -12.46633879 67.6801851 -11.90701923 79.12890625 -7.13671875 C93.93696694 -0.00594787 103.15391819 10.83963699 108.7109375 26.296875 C109.82096836 31.24893048 109.85758059 35.93069971 109.81640625 40.98828125 C109.82414063 41.93058594 109.831875 42.87289062 109.83984375 43.84375 C109.81566132 52.58569776 108.64379451 59.88378125 104.37890625 67.61328125 C103.82847656 68.63421875 103.27804687 69.65515625 102.7109375 70.70703125 C98.22677305 78.18738333 92.36872783 84.60850313 86.20996094 90.72851562 C85.51150055 91.43048065 84.81304016 92.13244568 84.09341431 92.85568237 C81.81332992 95.14447762 79.52611872 97.42598787 77.23828125 99.70703125 C75.64092286 101.30573843 74.04386134 102.90474227 72.44708252 104.50402832 C69.11509527 107.83895159 65.77954857 111.17026153 62.44140625 114.49902344 C58.15833983 118.77064054 53.88438968 123.05124916 49.61301804 127.33455658 C46.32418023 130.63060671 43.03061227 133.92189686 39.73557281 137.21174622 C38.15680295 138.78918073 36.57952071 140.36810555 35.00374603 141.9485321 C32.80904903 144.14828995 30.60807566 146.34156587 28.40527344 148.53320312 C27.75380341 149.18872162 27.10233337 149.84424011 26.43112183 150.5196228 C25.83129486 151.11381012 25.2314679 151.70799744 24.61346436 152.32019043 C24.09436871 152.83853203 23.57527306 153.35687363 23.04044724 153.89092255 C19.6235035 156.72444682 15.77970285 156.40385343 11.56640625 156.11328125 C7.85237756 154.21322563 5.1016187 151.88959227 2.1784668 148.93652344 C1.34377365 148.09845154 0.50908051 147.26037964 -0.35090637 146.39691162 C-1.24057602 145.49378235 -2.13024567 144.59065308 -3.046875 143.66015625 C-4.46577548 142.2333059 -5.8846787 140.80645826 -7.30373669 139.37976456 C-9.28681367 137.38358333 -11.26530996 135.38289246 -13.24377441 133.38214111 C-17.16539675 129.41734174 -21.09366092 125.45915556 -25.02544212 121.50443268 C-26.38591401 120.13388361 -27.74272917 118.75970776 -29.09944153 117.38543701 C-33.55324432 112.89717658 -38.04459042 108.59543238 -42.93791199 104.58648682 C-44.43359375 103.11328125 -44.43359375 103.11328125 -45.43359375 100.11328125 C-46.09359375 100.11328125 -46.75359375 100.11328125 -47.43359375 100.11328125 C-47.43359375 99.45328125 -47.43359375 98.79328125 -47.43359375 98.11328125 C-47.97628906 97.89414062 -48.51898438 97.675 -49.078125 97.44921875 C-52.21881832 95.66793 -54.60212522 93.28506364 -57.12109375 90.73828125 C-57.91012085 89.94188232 -57.91012085 89.94188232 -58.71508789 89.12939453 C-71.62716375 75.83530459 -81.09411128 60.71584416 -80.87109375 41.73828125 C-80.86279541 40.81926025 -80.85449707 39.90023926 -80.84594727 38.95336914 C-80.51538507 25.62618388 -75.34514428 13.14340628 -66.18359375 3.30078125 C-59.32590016 -2.98800054 -51.44521296 -7.58313511 -42.43359375 -9.88671875 C-41.62921875 -10.11359375 -40.82484375 -10.34046875 -39.99609375 -10.57421875 C-25.50222769 -12.34176339 -11.58003672 -8.97778128 0 0 Z " fill="#D72E38" transform="translate(496.43359375,378.88671875)"/>
<path d="M0 0 C1.58361328 0.01740234 1.58361328 0.01740234 3.19921875 0.03515625 C21.77913172 0.42462422 38.85933135 7.04782129 52.125 20.375 C65.62917429 35.27649836 72.54842829 52.59099589 72.33984375 72.77734375 C71.16736413 92.41104787 62.71432735 111.05337562 48.125 124.375 C41.16535587 129.70507912 33.41803408 134.4841184 25.125 137.375 C24.3309375 137.67148437 23.536875 137.96796875 22.71875 138.2734375 C4.77858664 143.8926266 -14.31282765 140.93082035 -31 133.25 C-49.10733821 123.69954502 -61.67927033 107.45517504 -67.8125 88 C-72.16755576 67.74899073 -68.96065855 47.77028239 -57.875 30.375 C-50.57435963 20.03468781 -42.14438027 12.80151257 -30.9375 7.0625 C-29.98991821 6.57390503 -29.98991821 6.57390503 -29.02319336 6.07543945 C-19.60483943 1.48388742 -10.42686273 -0.14761324 0 0 Z " fill="#0D2F47" transform="translate(625.875,226.625)"/>
<path d="M0 0 C1.6058839 1.22089367 3.18916483 2.47201799 4.75 3.75 C5.60464844 4.44222656 6.45929688 5.13445312 7.33984375 5.84765625 C19.92256758 16.57608394 29.41825927 32.13581092 31.05126953 48.82983398 C31.18675551 52.0597497 31.21787631 55.26743416 31.1875 58.5 C31.17920166 59.64235107 31.17090332 60.78470215 31.16235352 61.96166992 C30.75650943 82.31597823 23.02822012 97.617476 8.75 111.75 C8.09257812 112.42933594 7.43515625 113.10867188 6.7578125 113.80859375 C-6.50986745 126.59225962 -24.74063786 130.37440215 -42.48681641 130.22290039 C-50.38722577 129.99295473 -56.97690313 129.00721445 -64.25 125.75 C-65.77947266 125.09644531 -65.77947266 125.09644531 -67.33984375 124.4296875 C-74.47760126 121.13533788 -80.39128729 116.96326131 -86.25 111.75 C-86.94867188 111.14542969 -87.64734375 110.54085937 -88.3671875 109.91796875 C-101.89206364 97.41929916 -108.00375638 79.66657754 -109.50390625 61.7109375 C-110.18868242 43.90675711 -103.89626405 26.49525495 -92.328125 12.984375 C-69.22230269 -11.85872718 -29.26055046 -19.86031063 0 0 Z " fill="#0D2F46" transform="translate(432.25,237.25)"/>
<path d="M0 0 C78.80346821 0 78.80346821 0 101 18 C102.0003125 18.78632812 103.000625 19.57265625 104.03125 20.3828125 C114.90310529 29.96721124 122.22743414 45.74479596 123.13720703 60.17651367 C124.00492053 81.12948916 120.52392277 99.13762418 106.3984375 115.46875 C92.72761489 129.89658884 75.19061104 135.25848414 56 138 C37.52 138 19.04 138 0 138 C0 92.46 0 46.92 0 0 Z " fill="#0D2F47" transform="translate(76,600)"/>
<path d="M0 0 C1.12019531 -0.00128906 2.24039063 -0.00257813 3.39453125 -0.00390625 C4.57402344 -0.00003906 5.75351562 0.00382813 6.96875 0.0078125 C8.73798828 0.00201172 8.73798828 0.00201172 10.54296875 -0.00390625 C12.22326172 -0.00197266 12.22326172 -0.00197266 13.9375 0 C14.97326172 0.00112793 16.00902344 0.00225586 17.07617188 0.00341797 C19.46875 0.1328125 19.46875 0.1328125 20.46875 1.1328125 C20.5672991 2.91477122 20.595071 4.70066998 20.59573364 6.48535156 C20.59996338 8.22697571 20.59996338 8.22697571 20.60427856 10.00378418 C20.60124222 11.93163757 20.60124222 11.93163757 20.59814453 13.8984375 C20.59949856 15.25655159 20.6012785 16.6146653 20.60345459 17.97277832 C20.60802877 21.67102451 20.60623943 25.36924292 20.6030755 29.06748962 C20.60055182 32.92943397 20.60288946 36.79137587 20.60446167 40.65332031 C20.60628334 47.13997832 20.60387712 53.62662496 20.59912109 60.11328125 C20.59367848 67.62331173 20.59544113 75.13331506 20.6009475 82.64334488 C20.6054787 89.0798478 20.60612915 95.51634253 20.60350883 101.95284653 C20.60194609 105.80210566 20.6017522 109.65135202 20.60504532 113.50061035 C20.60792413 117.11861956 20.60594816 120.73659361 20.60015106 124.354599 C20.59818791 126.32367911 20.60117729 128.29276217 20.60427856 130.26184082 C20.60145874 131.42292358 20.59863892 132.58400635 20.59573364 133.78027344 C20.5951681 135.3034317 20.5951681 135.3034317 20.59459114 136.85736084 C20.46875 139.1328125 20.46875 139.1328125 19.46875 140.1328125 C17.77316274 140.23213403 16.07349253 140.26361257 14.375 140.265625 C13.34503906 140.26691406 12.31507813 140.26820313 11.25390625 140.26953125 C9.62775391 140.26373047 9.62775391 140.26373047 7.96875 140.2578125 C6.88464844 140.26167969 5.80054688 140.26554688 4.68359375 140.26953125 C3.65363281 140.26824219 2.62367188 140.26695312 1.5625 140.265625 C0.61052734 140.26449707 -0.34144531 140.26336914 -1.32226562 140.26220703 C-3.53125 140.1328125 -3.53125 140.1328125 -4.53125 139.1328125 C-4.76412008 137.45097302 -4.94389166 135.7615709 -5.09375 134.0703125 C-5.17753906 133.15121094 -5.26132812 132.23210937 -5.34765625 131.28515625 C-5.40824219 130.57488281 -5.46882812 129.86460937 -5.53125 129.1328125 C-5.92054688 129.58011719 -6.30984375 130.02742187 -6.7109375 130.48828125 C-12.58711617 136.83834529 -20.00058859 141.57728084 -28.79858398 142.32568359 C-44.64196806 142.84063649 -56.78701537 142.20328866 -69.31640625 131.359375 C-80.89157152 119.72296547 -85.61998506 105.30638851 -85.84375 89.1953125 C-85.74158095 74.17293938 -80.75167785 61.32823998 -70.46875 50.2578125 C-59.37007458 39.74327789 -47.27288021 36.53744948 -32.38671875 36.7890625 C-24.10876541 37.17371086 -17.86762654 40.31742303 -11.36010742 45.23779297 C-10.28342049 46.05037064 -10.28342049 46.05037064 -9.1849823 46.87936401 C-8.63925064 47.29300201 -8.09351898 47.70664001 -7.53125 48.1328125 C-7.52094254 47.54621353 -7.51063507 46.95961456 -7.50001526 46.35523987 C-7.39217806 40.2724338 -7.27756244 34.18978276 -7.15893555 28.10717773 C-7.11551335 25.83442414 -7.07384384 23.56163637 -7.03393555 21.28881836 C-6.97640881 18.02968018 -6.91266448 14.77071519 -6.84765625 11.51171875 C-6.83094376 10.48881241 -6.81423126 9.46590607 -6.79701233 8.41200256 C-6.77706711 7.47110275 -6.75712189 6.53020294 -6.73657227 5.56079102 C-6.72102798 4.72806168 -6.7054837 3.89533234 -6.68946838 3.03736877 C-6.35296079 -1.0133467 -3.42507781 0.00372986 0 0 Z " fill="#0E3048" transform="translate(743.53125,597.8671875)"/>
<path d="M0 0 C5.87294335 4.76692765 10.44364525 10.99305099 11.82421875 18.55859375 C12.6153014 28.73891965 12.33173973 38.06887468 5.63163757 46.22894287 C4.7640834 47.15724915 3.89652924 48.08555542 3.00268555 49.04199219 C2.52171008 49.55753536 2.04073462 50.07307854 1.54518414 50.60424423 C-4.40464845 56.9379649 -10.56107745 63.06880613 -16.71875 69.19921875 C-17.98120323 70.45980091 -19.24343143 71.72060848 -20.50544739 72.98162842 C-23.78611375 76.25852379 -27.0697742 79.53240202 -30.35412598 82.80560303 C-33.72166648 86.16281114 -37.08628584 89.52294422 -40.45117188 92.8828125 C-47.02322935 99.44422856 -53.59846218 106.00245234 -60.17578125 112.55859375 C-67.59306316 106.27124021 -67.59306316 106.27124021 -70.52734375 103.3046875 C-71.06875 102.76005859 -71.61015625 102.21542969 -72.16796875 101.65429688 C-72.70679688 101.10708984 -73.245625 100.55988281 -73.80078125 99.99609375 C-74.620625 99.16948242 -74.620625 99.16948242 -75.45703125 98.32617188 C-76.52973404 97.24448712 -77.60146115 96.16183375 -78.67211914 95.078125 C-80.05538754 93.68025806 -81.44535067 92.28902433 -82.8359375 90.8984375 C-84.27410048 89.46027452 -85.70750863 88.01731438 -87.1328125 86.56640625 C-90.38216979 83.26916369 -93.66602686 80.07877532 -97.17578125 77.05859375 C-101.36080771 73.44651734 -105.55604055 69.74632567 -109.17578125 65.55859375 C-109.17578125 64.89859375 -109.17578125 64.23859375 -109.17578125 63.55859375 C-109.77519531 63.29691406 -110.37460937 63.03523438 -110.9921875 62.765625 C-113.30639889 61.48639187 -114.4723757 60.29608933 -116.11328125 58.24609375 C-117.90760571 56.06502267 -119.67241576 54.06195924 -121.67578125 52.05859375 C-122.50078125 51.23359375 -123.32578125 50.40859375 -124.17578125 49.55859375 C-124.67207031 49.09453125 -125.16835938 48.63046875 -125.6796875 48.15234375 C-131.67753695 42.01920447 -134.21850234 33.4084963 -134.67578125 24.93359375 C-134.09239373 14.97954418 -129.51352905 7.09610658 -122.17578125 0.55859375 C-116.40056934 -4.15846675 -109.95571112 -4.04846628 -102.7265625 -3.8125 C-90.31836958 -2.51571416 -81.7655732 8.55160819 -74.01831055 17.484375 C-70.81058776 21.11935224 -67.81263691 23.94790366 -63 25.0625 C-57.52866289 25.21253667 -54.39403129 24.0490406 -50.2109375 20.53125 C-46.30428733 16.74457373 -42.75525954 12.65128217 -39.17578125 8.55859375 C-28.85726287 -2.98566655 -14.21968232 -9.42022042 0 0 Z " fill="#FD424B" transform="translate(572.17578125,395.44140625)"/>
<path d="M0 0 C2.74446397 0.01635084 5.48750875 -0.0000958 8.23193359 -0.01904297 C9.99886389 -0.01706448 11.76579331 -0.01322901 13.53271484 -0.00732422 C14.74680023 -0.01643326 14.74680023 -0.01643326 15.9854126 -0.02572632 C21.70721678 0.04525387 25.88048667 1.16022387 30.32958984 5.01611328 C32.1138472 8.78287882 32.2236271 12.31309922 31.45458984 16.39111328 C29.52117435 19.96163537 27.37103085 22.08563295 23.45458984 23.39111328 C22.12209914 23.4940164 20.78531059 23.54662303 19.44897461 23.56469727 C18.64706192 23.5781871 17.84514923 23.59167694 17.01893616 23.60557556 C16.15336594 23.61601395 15.28779572 23.62645233 14.39599609 23.63720703 C12.54638267 23.67018389 10.69677341 23.7033948 8.84716797 23.73681641 C5.94461329 23.78391124 3.04207054 23.82827207 0.1394043 23.86791992 C-20.51377641 24.16369912 -38.3934562 25.67154333 -54.47509766 40.12548828 C-66.25269535 52.37418988 -70.04305454 68.98858355 -69.90869141 85.45361328 C-69.90918991 86.64792969 -69.90968842 87.84224609 -69.91020203 89.07275391 C-69.90787879 91.57358481 -69.89825501 94.07441884 -69.8815918 96.57519531 C-69.85780178 100.40857655 -69.86106894 104.24126971 -69.86767578 108.07470703 C-69.86210449 110.51351327 -69.85499808 112.95231658 -69.84619141 115.39111328 C-69.84710281 116.53588135 -69.84801422 117.68064941 -69.84895325 118.86010742 C-69.83465523 120.45326782 -69.83465523 120.45326782 -69.82006836 122.07861328 C-69.81315727 123.47660156 -69.81315727 123.47660156 -69.80610657 124.90283203 C-69.5237194 127.59814608 -69.07930193 129.16030173 -67.54541016 131.39111328 C-64.25011404 133.50036072 -61.57360085 133.6433052 -57.70716858 133.6493988 C-55.91754448 133.65964081 -55.91754448 133.65964081 -54.09176636 133.67008972 C-52.13341354 133.6662603 -52.13341354 133.6662603 -50.13549805 133.66235352 C-48.74402054 133.66674157 -47.35254567 133.67204401 -45.96107483 133.67819214 C-42.96653195 133.68968681 -39.97205978 133.69515116 -36.97749519 133.69607353 C-32.24164014 133.69801478 -27.50593129 133.7160707 -22.77012634 133.73683167 C-11.00725312 133.78601187 0.75565978 133.81690787 12.51861572 133.83813477 C21.66052995 133.85465679 30.80231883 133.87746658 39.94414908 133.92115551 C44.65113146 133.94293419 49.35787574 133.95098954 54.06490505 133.94876277 C56.99441374 133.95043013 59.9237671 133.96448225 62.85321999 133.98197556 C64.85726958 133.9902393 66.8613632 133.98364518 68.86541748 133.97660828 C70.65927132 133.99108002 70.65927132 133.99108002 72.48936462 134.00584412 C74.04539351 134.00886111 74.04539351 134.00886111 75.63285732 134.01193905 C79.51426039 134.53350799 82.34545043 135.96507689 84.76708984 139.07861328 C85.79821565 142.54694555 86.03376496 145.83836833 85.45458984 149.39111328 C83.28583239 152.95407195 81.30002173 154.86450067 77.45458984 156.39111328 C74.74422359 156.64838219 74.74422359 156.64838219 71.58079529 156.65853882 C69.77893517 156.67133377 69.77893517 156.67133377 67.94067383 156.68438721 C66.62583008 156.68348083 65.31098633 156.68257446 63.95629883 156.68164062 C62.55485171 156.68762648 61.15340788 156.69443216 59.75196838 156.70199585 C55.9457853 156.71966536 52.13969215 156.72435185 48.33347201 156.72562742 C45.95203707 156.72704997 43.57062491 156.73132172 41.18919563 156.73662186 C32.87066322 156.755131 24.5521949 156.76329208 16.23364258 156.76171875 C8.49813 156.76051973 0.76289752 156.78157258 -6.97254425 156.81320608 C-13.62583359 156.83943748 -20.27903191 156.85008306 -26.93237251 156.84880793 C-30.900491 156.84829996 -34.86836101 156.85389026 -38.83642769 156.87516403 C-42.57530371 156.89466048 -46.31369736 156.89459404 -50.05259132 156.88013077 C-52.06268297 156.87707281 -54.07277525 156.89364234 -56.08279419 156.91101074 C-68.14206987 156.8281551 -76.70905903 154.12341905 -85.44384766 145.70751953 C-90.60144795 140.02265527 -92.65411678 134.6330835 -92.73828125 126.97045898 C-92.74645874 126.32272522 -92.75463623 125.67499146 -92.76306152 125.00762939 C-92.78789074 122.8607269 -92.80444 120.71389126 -92.81884766 118.56689453 C-92.82417133 117.82836935 -92.82949501 117.08984417 -92.83498001 116.32893944 C-92.86172211 112.40721044 -92.88107917 108.48551312 -92.89550781 104.5637207 C-92.9087502 101.3466283 -92.93641754 98.13018487 -92.97753906 94.91333008 C-93.02746792 91.00642575 -93.05170318 87.10010165 -93.05873489 83.19289207 C-93.06535914 81.71840261 -93.08034348 80.24392147 -93.1046257 78.76961708 C-93.42165988 58.32649724 -86.23434197 40.65767022 -72.54541016 25.39111328 C-72.00400391 24.75560547 -71.46259766 24.12009766 -70.90478516 23.46533203 C-52.79133747 3.5679842 -25.38557845 -0.18023622 0 0 Z " fill="#0D2F46" transform="translate(378.54541015625,374.60888671875)"/>
<path d="M0 0 C0.75545105 -0.00191345 1.5109021 -0.0038269 2.28924561 -0.00579834 C3.89302909 -0.00715856 5.49682364 -0.00347346 7.10058594 0.00488281 C9.49701382 0.01540605 11.89266072 0.00507671 14.2890625 -0.0078125 C40.33785166 -0.03241751 64.93363293 4.63192423 84.296875 23.265625 C100.61758198 40.22531562 106.61417132 60.53020409 106.59765625 83.62109375 C106.60155534 84.97626371 106.60589245 86.33143248 106.61064148 87.68659973 C106.618044 90.50619499 106.61785438 93.32566487 106.61254883 96.14526367 C106.60673355 99.73941437 106.6237632 103.33305317 106.6468935 106.92711926 C106.66168834 109.71799157 106.66249527 112.50874179 106.65938377 115.29964638 C106.66013858 117.26262817 106.67394521 119.22559118 106.68806458 121.18852234 C106.635316 131.39458368 104.91594477 138.93405071 97.94140625 146.79296875 C88.90217305 155.56437281 76.90714525 157.00629136 64.88110352 156.88085938 C63.48991725 156.88437086 62.09873506 156.89004094 60.70756531 156.89767456 C56.97224055 156.91177581 53.23766486 156.89501344 49.50241208 156.87138939 C45.57615172 156.85111474 41.64991744 156.85716802 37.72361755 156.85949707 C31.14122316 156.85944372 24.55911797 156.8398102 17.97680664 156.80761719 C10.37678515 156.77062653 2.77714042 156.76195864 -4.82295936 156.7689147 C-12.15876351 156.77522444 -19.49443917 156.76446361 -26.83021736 156.74494934 C-29.94292093 156.73679504 -33.05555867 156.73406208 -36.16827202 156.73564148 C-39.83009426 156.73652203 -43.4915598 156.72225912 -47.15328789 156.69641495 C-49.13199997 156.68587249 -51.11077303 156.68991758 -53.08950806 156.69442749 C-54.27377884 156.6830777 -55.45804962 156.67172791 -56.6782074 156.66003418 C-57.70294883 156.65630547 -58.72769026 156.65257675 -59.78348446 156.64873505 C-64.29147734 156.05720423 -67.6578963 154.51989943 -70.578125 151.015625 C-72.01471306 147.50396529 -72.10672422 145.03255109 -71.703125 141.265625 C-70.00546201 137.44588328 -68.5643561 135.77270229 -64.703125 134.265625 C-62.02285099 134.01229191 -62.02285099 134.01229191 -58.90284729 134.00733948 C-57.12584442 133.99709747 -57.12584442 133.99709747 -55.3129425 133.98664856 C-54.0167247 133.98920151 -52.7205069 133.99175446 -51.38500977 133.99438477 C-50.00338433 133.98999667 -48.62176154 133.98469421 -47.24014282 133.97854614 C-44.26688075 133.96705178 -41.29368989 133.96158715 -38.32040596 133.96066475 C-33.61815539 133.95872343 -28.91605204 133.94066714 -24.21385193 133.91990662 C-12.53445475 133.87072732 -0.8550176 133.83983066 10.82446289 133.81860352 C19.90153459 133.80208125 28.97848006 133.7792708 38.05546719 133.73558277 C42.72899847 133.7138048 47.40228995 133.70574868 52.07586849 133.70797551 C54.98461873 133.70630809 57.89321254 133.69225557 60.80190659 133.67476273 C62.79164268 133.66649948 64.78142313 133.67309288 66.77116394 133.68013 C67.95865234 133.67048218 69.14614075 133.66083435 70.36961365 133.65089417 C71.39959189 133.64888284 72.42957014 133.64687151 73.49075985 133.64479923 C76.75740006 133.20339689 78.6491416 132.19934848 81.296875 130.265625 C82.59576932 127.66783636 82.4310361 125.76630078 82.44213867 122.85717773 C82.44851852 121.72517441 82.45489838 120.59317108 82.46147156 119.42686462 C82.46258438 118.19674149 82.4636972 116.96661835 82.46484375 115.69921875 C82.46817215 114.4360231 82.47150055 113.17282745 82.47492981 111.87135315 C82.48000281 109.19048559 82.48276955 106.5097193 82.48217773 103.82885742 C82.48207672 100.41514009 82.4956639 97.00163359 82.51294994 93.58796597 C82.52684488 90.31255844 82.52616186 87.03715171 82.52734375 83.76171875 C82.53812202 81.93778847 82.53812202 81.93778847 82.54911804 80.07701111 C82.52221425 69.98518393 81.09876822 61.98371126 76.484375 53.015625 C76.15373047 52.335 75.82308594 51.654375 75.48242188 50.953125 C73.29843522 46.62707081 70.83091222 43.64547212 67.296875 40.265625 C67.296875 39.605625 67.296875 38.945625 67.296875 38.265625 C66.45962891 37.87503906 66.45962891 37.87503906 65.60546875 37.4765625 C63.03659522 36.12909923 60.74816589 34.53583737 58.359375 32.890625 C47.73919742 26.05726677 36.16677705 24.12994492 23.76953125 24.16015625 C21.90688942 24.14670492 20.0442584 24.13168263 18.18164062 24.11523438 C15.26727492 24.0923949 12.35414107 24.07814732 9.43969727 24.09057617 C6.61125637 24.0994143 3.78522252 24.07045709 0.95703125 24.03515625 C0.09328384 24.04738724 -0.77046356 24.05961823 -1.66038513 24.07221985 C-7.32365729 23.95950392 -10.29499213 22.69270267 -14.43099976 18.80474854 C-16.89730033 15.82081179 -16.46869223 13.26260888 -16.19921875 9.60546875 C-15.34476577 5.57541101 -13.4033252 3.40142678 -10.04394531 1.15722656 C-6.72308724 -0.10766431 -3.50355994 -0.01979301 0 0 Z " fill="#0E2F47" transform="translate(629.703125,374.734375)"/>
<path d="M0 0 C10.27940676 10.27940676 15.92688075 23.45967016 15.94921875 37.95703125 C15.94535156 38.81683594 15.94148437 39.67664063 15.9375 40.5625 C15.94136719 41.43777344 15.94523438 42.31304688 15.94921875 43.21484375 C15.94792969 44.04628906 15.94664062 44.87773438 15.9453125 45.734375 C15.94418457 46.49331055 15.94305664 47.25224609 15.94189453 48.03417969 C15.8125 49.8125 15.8125 49.8125 14.8125 50.8125 C12.57320114 50.90686529 10.3308825 50.92992327 8.08959961 50.92602539 C7.3871965 50.92617142 6.6847934 50.92631744 5.96110535 50.9264679 C3.62898722 50.92576872 1.296948 50.91797617 -1.03515625 50.91015625 C-2.64798438 50.90829208 -4.26081307 50.90686818 -5.87364197 50.90586853 C-10.12665357 50.90204323 -14.37963124 50.89221285 -18.63262939 50.88116455 C-22.9692743 50.87095069 -27.30592467 50.86637096 -31.64257812 50.86132812 C-40.15756769 50.85059059 -48.67252963 50.83351403 -57.1875 50.8125 C-56.88283946 52.26220805 -56.57341347 53.71091521 -56.26196289 55.15917969 C-56.09016006 55.9660321 -55.91835724 56.77288452 -55.74134827 57.60418701 C-54.45727365 62.72407059 -51.1993346 66.40735382 -46.93359375 69.38671875 C-38.11571374 74.45663658 -28.91079702 75.32417526 -19 72.6875 C-12.53944986 70.49924915 -6.87745273 66.75238752 -2.1875 61.8125 C1.71167968 63.42787444 4.52543772 66.09174873 7.5625 68.9375 C8.06910156 69.40542969 8.57570313 69.87335938 9.09765625 70.35546875 C10.33969141 71.50376541 11.57661494 72.65758672 12.8125 73.8125 C9.12968599 81.92177316 1.65141244 87.05069181 -6.1875 90.8125 C-22.09448286 96.75161132 -39.17110854 98.48948595 -55.0625 91.55859375 C-68.71595224 84.59912573 -76.99710304 74.30753209 -82.4609375 60.1015625 C-86.3929779 47.71352126 -85.06520177 33.66980791 -80.1875 21.8125 C-79.836875 20.93207031 -79.48625 20.05164063 -79.125 19.14453125 C-73.22330247 5.92718782 -61.92137541 -3.32375613 -48.609375 -8.4609375 C-31.73493249 -13.52327025 -14.27343591 -9.79549523 0 0 Z " fill="#0D2F46" transform="translate(858.1875,645.1875)"/>
<path d="M0 0 C11.10332354 8.31381861 17.11714967 18.62433431 19.91796875 32.18359375 C20.79370338 39.01877673 20.79450952 45.90781137 20.37890625 52.78125 C19.37890625 53.78125 19.37890625 53.78125 16.5252533 53.90150452 C15.24840164 53.89928391 13.97154999 53.89706329 12.65600586 53.89477539 C11.95360275 53.89492142 11.25119965 53.89506744 10.5275116 53.8952179 C8.19539347 53.89451872 5.86335425 53.88672617 3.53125 53.87890625 C1.91842187 53.87704208 0.30559318 53.87561818 -1.30723572 53.87461853 C-5.56024732 53.87079323 -9.81322499 53.86096285 -14.06622314 53.84991455 C-18.40286805 53.83970069 -22.73951842 53.83512096 -27.07617188 53.83007812 C-35.59116144 53.81934059 -44.10612338 53.80226403 -52.62109375 53.78125 C-52.17077258 55.54599669 -51.71213212 57.30862186 -51.25 59.0703125 C-50.99549072 60.05209473 -50.74098145 61.03387695 -50.47875977 62.04541016 C-48.95789038 66.89678003 -46.54090473 69.65393699 -42.1796875 72.21484375 C-33.01620536 76.92329964 -24.58713943 78.36174023 -14.43359375 75.65625 C-7.97304361 73.46799915 -2.31104648 69.72113752 2.37890625 64.78125 C6.27808593 66.39662444 9.09184397 69.06049873 12.12890625 71.90625 C12.63550781 72.37417969 13.14210938 72.84210938 13.6640625 73.32421875 C14.90609766 74.47251541 16.14302119 75.62633672 17.37890625 76.78125 C13.6973375 84.88778119 6.21810517 90.02451478 -1.62109375 93.78125 C-17.62555358 99.69348575 -34.517513 101.36723861 -50.5625 94.52734375 C-64.44742138 87.4400473 -72.91879358 76.88064918 -77.89453125 62.19140625 C-82.33527423 47.46055452 -79.90382614 32.15438228 -73.01171875 18.62109375 C-65.55280984 6.18387637 -54.98620953 -2.24740635 -41.08984375 -6.52734375 C-27.18671861 -9.29857478 -11.9983589 -7.85767324 0 0 Z " fill="#0D2F47" transform="translate(285.62109375,642.21875)"/>
<path d="M0 0 C1.22009766 0.73089844 1.22009766 0.73089844 2.46484375 1.4765625 C3.26792969 1.92257813 4.07101562 2.36859375 4.8984375 2.828125 C16.04982178 9.56032664 22.54592983 19.71126676 26.27734375 31.9765625 C29.33130013 44.56096897 26.96198526 58.26757372 20.33984375 69.4140625 C12.65888965 80.25201892 2.96679959 86.30924389 -9.53515625 90.4765625 C-26.42536633 91.82532701 -39.17253455 89.72773917 -52.57421875 78.81640625 C-61.10292342 70.87005806 -67.06778683 59.2073124 -67.7734375 47.53515625 C-68.13733904 32.48464542 -64.89858504 20.60171622 -54.43359375 9.18359375 C-49.37656181 4.42140643 -43.95159977 1.10842645 -37.53515625 -1.5234375 C-36.66503906 -1.88824219 -35.79492188 -2.25304687 -34.8984375 -2.62890625 C-24.0476389 -5.51489101 -10.01373907 -5.14335522 0 0 Z " fill="#F9F9F8" transform="translate(647.53515625,253.5234375)"/>
<path d="M0 0 C11.24146966 7.31290765 18.80040926 17.54290688 22.33203125 30.4921875 C23.90334776 45.04160718 22.08789893 58.54327233 13.05078125 70.4140625 C5.77980057 79.20533914 -3.38157802 86.0137396 -14.66796875 88.4921875 C-29.68853887 89.81635011 -42.05098827 88.11235615 -54.19921875 78.6171875 C-63.46664137 70.6401655 -70.34928479 59.87080148 -71.66796875 47.4921875 C-72.69289559 32.38565717 -68.60843285 20.43817083 -58.90234375 8.81640625 C-43.67727975 -7.02085438 -19.17259859 -10.83546567 0 0 Z " fill="#F9F9F8" transform="translate(417.66796875,255.5078125)"/>
<path d="M0 0 C9.45653371 6.33652089 14.73781639 16.00416662 17 27 C17.40715309 32.42094926 17.37522898 37.82265491 17.328125 43.25390625 C17.32506164 44.80663367 17.32318991 46.35936385 17.32244873 47.91209412 C17.31787558 51.14373518 17.30355554 54.37512288 17.28125 57.60668945 C17.25275575 61.75629251 17.24201394 65.90569871 17.2375679 70.05539036 C17.23342409 73.2508695 17.22361883 76.44630868 17.21169281 79.6417675 C17.20598696 81.17324441 17.20122929 82.70472515 17.19742584 84.23620796 C17.19058907 86.36400348 17.17697494 88.49163969 17.16113281 90.61938477 C17.15430481 91.83054459 17.14747681 93.04170441 17.14044189 94.28956604 C17 97 17 97 16 98 C14.15840977 98.09959621 12.31303033 98.13080411 10.46875 98.1328125 C9.34855469 98.13410156 8.22835937 98.13539063 7.07421875 98.13671875 C5.89472656 98.13285156 4.71523438 98.12898437 3.5 98.125 C1.73076172 98.13080078 1.73076172 98.13080078 -0.07421875 98.13671875 C-1.19441406 98.13542969 -2.31460938 98.13414062 -3.46875 98.1328125 C-4.50451172 98.13168457 -5.54027344 98.13055664 -6.60742188 98.12939453 C-9 98 -9 98 -10 97 C-10.10271513 95.01763971 -10.13572468 93.03164099 -10.1418457 91.04663086 C-10.15239738 89.13345314 -10.15239738 89.13345314 -10.16316223 87.18162537 C-10.16497812 86.49503782 -10.16679401 85.80845028 -10.16866493 85.10105705 C-10.17582349 82.95216454 -10.19148871 80.80350132 -10.21000671 78.65467834 C-10.26247955 72.54301253 -10.31037751 66.43146587 -10.32592773 60.31958008 C-10.33605749 56.58342587 -10.36551591 52.84783907 -10.40724754 49.11190987 C-10.41950159 47.69232048 -10.42468908 46.27265068 -10.42244911 44.85301018 C-10.41293965 36.85257902 -10.53085834 30.78064245 -15 24 C-20.4415631 18.69447598 -25.61799179 18.64718772 -32.953125 18.71875 C-38.68560789 19.24790227 -42.45158423 21.37008866 -46.375 25.5 C-49.33397053 30.05226235 -50.25320454 32.88644054 -50.30297852 38.4050293 C-50.31962051 39.70284836 -50.33626251 41.00066742 -50.35340881 42.33781433 C-50.36196822 43.74994877 -50.37046591 45.16208359 -50.37890625 46.57421875 C-50.39508379 48.02343361 -50.41226406 49.4726376 -50.43040466 50.92182922 C-50.47603531 54.73046863 -50.51087603 58.53912252 -50.54260254 62.34790039 C-50.59454183 68.45506837 -50.65947526 74.56207735 -50.73081779 80.6690464 C-50.75370777 82.80569149 -50.76993821 84.94231608 -50.78553772 87.07902527 C-50.79902756 88.36738785 -50.8125174 89.65575043 -50.82641602 90.9831543 C-50.83592789 92.12358688 -50.84543976 93.26401947 -50.85523987 94.43901062 C-51 97 -51 97 -52 98 C-53.84159023 98.09959621 -55.68696967 98.13080411 -57.53125 98.1328125 C-58.65144531 98.13410156 -59.77164063 98.13539063 -60.92578125 98.13671875 C-62.10527344 98.13285156 -63.28476562 98.12898437 -64.5 98.125 C-66.26923828 98.13080078 -66.26923828 98.13080078 -68.07421875 98.13671875 C-69.19441406 98.13542969 -70.31460938 98.13414062 -71.46875 98.1328125 C-72.50451172 98.13168457 -73.54027344 98.13055664 -74.60742188 98.12939453 C-77 98 -77 98 -78 97 C-78.10065628 93.93081812 -78.13614443 90.88409724 -78.12939453 87.81445312 C-78.13114685 86.85030991 -78.13289917 85.88616669 -78.13470459 84.89280701 C-78.13912493 81.68893664 -78.13618447 78.48512098 -78.1328125 75.28125 C-78.13348549 73.06547027 -78.13445547 70.84969061 -78.13571167 68.63391113 C-78.13718889 63.98330993 -78.13503331 59.33272789 -78.13037109 54.68212891 C-78.1246738 48.70617396 -78.12795267 42.73026391 -78.13394356 36.75431061 C-78.13754852 32.17685606 -78.13641088 27.59941225 -78.13381577 23.0219574 C-78.13314632 20.81782526 -78.13397554 18.61369217 -78.13629532 16.40956116 C-78.13882078 13.33486328 -78.13498275 10.26023922 -78.12939453 7.18554688 C-78.13141876 6.26499008 -78.13344299 5.34443329 -78.13552856 4.39598083 C-78.11426228 -1.88573772 -78.11426228 -1.88573772 -77 -3 C-75.21928754 -3.08726223 -73.4351686 -3.10699041 -71.65234375 -3.09765625 C-70.57275391 -3.09443359 -69.49316406 -3.09121094 -68.38085938 -3.08789062 C-66.67639648 -3.07532227 -66.67639648 -3.07532227 -64.9375 -3.0625 C-63.22723633 -3.05573242 -63.22723633 -3.05573242 -61.48242188 -3.04882812 C-58.65492582 -3.0369976 -55.82745655 -3.0190615 -53 -3 C-53 0.96 -53 4.92 -53 9 C-51.845 7.948125 -50.69 6.89625 -49.5 5.8125 C-35.61551029 -6.28439227 -16.38240148 -9.89979476 0 0 Z " fill="#0E3249" transform="translate(632,640)"/>
<path d="M0 0 C13.54264475 -0.02254853 27.08527713 -0.04091364 40.62793636 -0.05181217 C46.91562024 -0.05704162 53.20329066 -0.06414039 59.4909668 -0.07543945 C65.55337723 -0.08626614 71.61577469 -0.09227637 77.67819405 -0.09487724 C79.99676277 -0.09673189 82.31533074 -0.10035325 84.63389397 -0.10573006 C87.86914508 -0.11293758 91.10434183 -0.11399106 94.33959961 -0.11352539 C95.30848114 -0.11712067 96.27736267 -0.12071594 97.27560425 -0.12442017 C98.59027428 -0.12235817 98.59027428 -0.12235817 99.9315033 -0.12025452 C101.08051825 -0.12163721 101.08051825 -0.12163721 102.25274563 -0.12304783 C104 0 104 0 105 1 C105.08713831 2.70772358 105.10700007 4.41898649 105.09765625 6.12890625 C105.09515869 7.06033447 105.09266113 7.9917627 105.09008789 8.95141602 C105.08098389 10.14307373 105.07187988 11.33473145 105.0625 12.5625 C105.041875 16.336875 105.02125 20.11125 105 24 C92.46 24.33 79.92 24.66 67 25 C66.67 62.29 66.34 99.58 66 138 C57.42 138 48.84 138 40 138 C39.505 82.065 39.505 82.065 39 25 C19.695 24.505 19.695 24.505 0 24 C0 16.08 0 8.16 0 0 Z " fill="#0E2F46" transform="translate(398,600)"/>
<path d="M0 0 C39.15384615 0 39.15384615 0 53 10 C53.886875 10.5775 54.77375 11.155 55.6875 11.75 C64.4429541 20.26882021 69.03840848 30.16970162 69.47070312 42.2980957 C69.63169687 56.80229017 66.57010299 67.14692191 56.34375 77.7109375 C40.48829201 92.44454704 21.16509053 89 0 89 C0 59.63 0 30.26 0 0 Z " fill="#FAF9F8" transform="translate(102,624)"/>
<path d="M0 0 C5.08557802 2.40522102 8.86761911 6.45779855 12.875 10.3125 C14.39685095 11.76071565 15.91899192 13.2086266 17.44140625 14.65625 C18.20469238 15.38457031 18.96797852 16.11289062 19.75439453 16.86328125 C23.08716613 20.03445074 26.44726305 23.17585346 29.8125 26.3125 C30.43044434 26.88911377 31.04838867 27.46572754 31.68505859 28.05981445 C36.39698752 32.45130212 41.14345844 36.8035914 45.8984375 41.1484375 C50.14841622 45.0440206 54.34848507 48.99321295 58.55664062 52.93383789 C62.16860943 56.31002021 65.81031973 59.64594632 69.5 62.9375 C72.90313166 65.97500594 76.14919991 69.11274731 79.3359375 72.375 C81.60386557 74.58969033 84.03826823 76.572721 86.51953125 78.54296875 C89.89260147 81.86263944 90.25445761 85.16827545 90.4609375 89.8046875 C89.27841275 95.43671214 84.8969449 99.27127637 80.75 102.9375 C79.67742559 103.89736605 78.60586517 104.85836598 77.53515625 105.8203125 C76.9642627 106.33110352 76.39336914 106.84189453 75.80517578 107.36816406 C72.55708481 110.30436099 69.37568424 113.31158345 66.1875 116.3125 C64.82044265 117.59649275 63.45325445 118.8803462 62.0859375 120.1640625 C61.40756836 120.80118164 60.72919922 121.43830078 60.03027344 122.09472656 C51.74401236 129.8708186 43.43412491 137.62104787 35.06494141 145.30786133 C31.91397198 148.2093109 28.79335673 151.13990144 25.69140625 154.09375 C24.94487793 154.80289551 24.19834961 155.51204102 23.42919922 156.24267578 C21.97819416 157.62288469 20.53038255 159.00646193 19.08642578 160.39404297 C6.55526801 172.30238573 6.55526801 172.30238573 0.875 172.6875 C-4.01296239 171.82028087 -5.57610915 170.50740039 -9 167 C-10.58324757 163.83350487 -10.64374236 160.42541806 -10 157 C-7.47899538 152.59260856 -4.53729095 149.41076141 -0.75 146.0625 C0.31999182 145.10526254 1.38894614 144.1468645 2.45703125 143.1875 C3.02760254 142.67703125 3.59817383 142.1665625 4.18603516 141.640625 C7.48010444 138.66133219 10.70455287 135.60777755 13.9375 132.5625 C19.31114024 127.51220565 24.70603763 122.48683704 30.13208008 117.49291992 C34.953047 113.05269263 39.74341049 108.5800597 44.52197266 104.09423828 C47.446345 101.35517573 50.38485265 98.64139163 53.39453125 95.99609375 C53.91128418 95.53928223 54.42803711 95.0824707 54.96044922 94.61181641 C56.34132122 93.39710553 57.73089697 92.19230903 59.12109375 90.98828125 C61.34341658 89.0925271 61.34341658 89.0925271 61 86 C59.51683606 84.35557377 59.51683606 84.35557377 57.515625 82.796875 C53.10422245 79.09936697 48.92396315 75.21174409 44.75 71.25 C38.88445742 65.7052989 32.9819657 60.20994682 27.01953125 54.76953125 C23.5097132 51.55971768 20.0365708 48.31090165 16.5625 45.0625 C11.71599203 40.53338933 6.86758295 36.00646945 2 31.5 C1.46334717 31.00242187 0.92669434 30.50484375 0.3737793 29.9921875 C-2.39797193 27.43431807 -5.21191281 24.95756959 -8.125 22.5625 C-12.32108223 18.82251367 -13.78785107 16.67067281 -14.5 11.0625 C-14.338853 6.33552137 -12.31277453 4.23389894 -9 1 C-5.93570224 -0.53214888 -3.3834358 -0.22938548 0 0 Z " fill="#0D2F46" transform="translate(758,318)"/>
<path d="M0 0 C3.08599137 1.49770227 5.12200767 3.11417015 7 6 C7.87705642 9.8210611 8.03719088 13.20983973 7 17 C4.91015625 19.37890625 4.91015625 19.37890625 2 22 C0.83060422 23.16787269 -0.3317005 24.34287235 -1.48828125 25.5234375 C-13.4121886 37.54650416 -13.4121886 37.54650416 -19.3125 42.53125 C-21.74274016 44.64645903 -23.96233789 46.95256222 -26.21875 49.25 C-28.71896185 51.70634849 -31.37680516 53.96309368 -34.03125 56.25 C-35.93023071 57.93798286 -37.72005988 59.68769734 -39.5 61.5 C-42.53832417 64.59356643 -45.7476532 67.42105507 -49.03125 70.25 C-51.53265887 72.47347455 -53.85833843 74.84055566 -56.19140625 77.23828125 C-58.80613623 79.78524285 -61.64022275 82.05361164 -64.49609375 84.32421875 C-66.44527316 86.12088471 -66.44527316 86.12088471 -66 90 C-64.30722526 92.21829562 -64.30722526 92.21829562 -62 94.3125 C-61.2575 95.03050781 -60.515 95.74851562 -59.75 96.48828125 C-57.59073967 98.46044658 -55.41035151 100.39122149 -53.203125 102.30859375 C-48.94770261 106.01513844 -44.84261998 109.86546331 -40.75 113.75 C-34.89247645 119.2871207 -28.99941558 124.7763949 -23.04296875 130.20703125 C-18.76922394 134.11474104 -14.55271245 138.08461844 -10.33740234 142.05517578 C-6.80682502 145.3667132 -3.21360042 148.55513642 0.52612305 151.62963867 C2.68512931 153.63701024 3.90024167 155.38044828 4.37109375 158.3046875 C4.55199094 165.30647292 4.55199094 165.30647292 1.5625 169.0625 C0.716875 169.701875 -0.12875 170.34125 -1 171 C-1.33 171.33 -1.66 171.66 -2 172 C-5.94229517 172.75912905 -9.53484394 172.90228723 -13.0234375 170.75390625 C-15.10556062 168.91398929 -17.05011698 166.97931522 -19 165 C-20.51333558 163.63745943 -22.03468879 162.28378908 -23.5625 160.9375 C-28.51560048 156.47059343 -33.39022945 151.92220599 -38.26000977 147.36499023 C-42.32540544 143.56059551 -46.40419942 139.77163148 -50.5 136 C-55.18414122 131.68522276 -59.84726066 127.34861544 -64.5 123 C-69.30431506 118.51197777 -74.11245931 114.0282442 -78.9375 109.5625 C-79.47165527 109.06669434 -80.00581055 108.57088867 -80.55615234 108.06005859 C-83.51280234 105.32777652 -86.53143167 102.70015615 -89.625 100.125 C-93.27054356 96.91877141 -95.7556461 94.08191356 -96.15625 89.02929688 C-95.83815365 81.61367563 -92.21769944 78.22443464 -86.9375 73.375 C-85.82858398 72.30765625 -85.82858398 72.30765625 -84.69726562 71.21875 C-80.5017921 67.21047608 -76.17916353 63.3585684 -71.77758789 59.57861328 C-69.94415739 57.95040814 -68.21713685 56.24982706 -66.5 54.5 C-63.46167583 51.40643357 -60.2523468 48.57894493 -56.96875 45.75 C-55.06976929 44.06201714 -53.27994012 42.31230266 -51.5 40.5 C-49.10946833 38.06610268 -46.64953738 35.78644441 -44.0625 33.5625 C-41.25423653 31.14382221 -38.60029407 28.64100317 -36 26 C-33.46027814 23.4207494 -30.87548686 20.97782611 -28.125 18.625 C-24.89321117 15.85670937 -21.91245219 12.91746245 -18.9375 9.875 C-7.60359663 -1.49356362 -7.60359663 -1.49356362 0 0 Z " fill="#0D2F46" transform="translate(271,318)"/>
<path d="M0 0 C4.27060618 -0.11589162 8.54080984 -0.18714802 12.8125 -0.25 C14.02744141 -0.28351562 15.24238281 -0.31703125 16.49414062 -0.3515625 C18.23920898 -0.37089844 18.23920898 -0.37089844 20.01953125 -0.390625 C21.62985229 -0.4220459 21.62985229 -0.4220459 23.27270508 -0.45410156 C26 0 26 0 27.67944336 1.4855957 C29.56430441 5.07446315 30.83485139 8.77895633 32.109375 12.62109375 C32.39736969 13.46977524 32.68536438 14.31845673 32.98208618 15.19285583 C33.91190567 17.93870601 34.8312095 20.68794188 35.75 23.4375 C36.38176383 25.31220066 37.01408819 27.18671252 37.64697266 29.06103516 C38.88303934 32.72567709 40.11483646 36.39170827 41.34277344 40.05908203 C42.70841625 44.13611303 44.08819115 48.20799997 45.4765625 52.27734375 C46.10971522 54.14311375 46.74256969 56.00898501 47.375 57.875 C47.6544043 58.69154053 47.93380859 59.50808105 48.22167969 60.34936523 C49.23000576 63.35736041 50 65.80405255 50 69 C50.66 69 51.32 69 52 69 C52.24766113 67.7521875 52.49532227 66.504375 52.75048828 65.21875 C54.03158772 59.47180378 55.98100154 54.0261328 57.9921875 48.5 C58.37939972 47.42427734 58.76661194 46.34855469 59.16555786 45.24023438 C59.98160617 42.9769159 60.80032759 40.71455962 61.62158203 38.453125 C62.87034966 35.01281153 64.10965145 31.56919915 65.34765625 28.125 C66.14527415 25.91646464 66.9434333 23.70812466 67.7421875 21.5 C68.10899628 20.48099609 68.47580505 19.46199219 68.85372925 18.41210938 C74.73070637 2.26929363 74.73070637 2.26929363 77 0 C78.85369611 -0.08737645 80.71067541 -0.10698153 82.56640625 -0.09765625 C83.69111328 -0.09443359 84.81582031 -0.09121094 85.97460938 -0.08789062 C87.15861328 -0.07951172 88.34261719 -0.07113281 89.5625 -0.0625 C90.75037109 -0.05798828 91.93824219 -0.05347656 93.16210938 -0.04882812 C96.10812226 -0.03699675 99.05403681 -0.02051287 102 0 C103.21109589 3.63328766 102.7178325 4.32352765 101.25390625 7.7578125 C100.83689453 8.75482178 100.41988281 9.75183105 99.99023438 10.77905273 C99.51908203 11.88321533 99.04792969 12.98737793 98.5625 14.125 C97.53990716 16.5756093 96.51993735 19.02714654 95.50390625 21.48046875 C95.22825836 22.14428055 94.95261047 22.80809235 94.66860962 23.49201965 C90.97600332 32.41983149 87.49884702 41.43248484 84 50.4375 C83.31258361 52.20278236 82.62500267 53.96800064 81.93725586 55.7331543 C79.08690571 63.05133156 76.24185981 70.37152536 73.40875244 77.69639587 C72.62845541 79.71178954 71.84596732 81.72631541 71.0625 83.74047852 C70.12837757 86.14289292 69.19845065 88.54694438 68.2734375 90.95288086 C67.86609375 91.99839111 67.45875 93.04390137 67.0390625 94.12109375 C66.69053223 95.0227124 66.34200195 95.92433105 65.98291016 96.85327148 C65 99 65 99 63 101 C60.38623047 101.22705078 60.38623047 101.22705078 57.1171875 101.1953125 C55.36728516 101.18564453 55.36728516 101.18564453 53.58203125 101.17578125 C52.35871094 101.15902344 51.13539063 101.14226562 49.875 101.125 C48.64394531 101.11597656 47.41289062 101.10695313 46.14453125 101.09765625 C43.09616185 101.07402548 40.04817618 101.04108054 37 101 C34.27308196 95.73300967 31.94852944 90.52056369 29.9609375 84.9375 C29.68219284 84.16834763 29.40344818 83.39919525 29.11625671 82.60673523 C28.19837518 80.07262888 27.28675334 77.53631693 26.375 75 C25.05166932 71.33857295 23.72399851 67.67873423 22.39453125 64.01953125 C22.04690231 63.06214554 21.69927338 62.10475983 21.34111023 61.11836243 C18.61916695 53.64528606 15.82793386 46.19972649 13.01171875 38.76171875 C12.59839294 37.66844269 12.18506714 36.57516663 11.75921631 35.44876099 C10.12326984 31.12346697 8.48663532 26.79849662 6.83734131 22.47827148 C5.6893334 19.47068391 4.54912715 16.46023783 3.41015625 13.44921875 C3.06401779 12.54999191 2.71787933 11.65076508 2.36125183 10.72428894 C2.04875992 9.89448013 1.73626801 9.06467133 1.41430664 8.2097168 C1.13978165 7.4895488 0.86525665 6.7693808 0.58241272 6.02738953 C0 4 0 4 0 0 Z " fill="#0D2F47" transform="translate(304,637)"/>
<path d="M0 0 C0.97324219 -0.00257813 1.94648437 -0.00515625 2.94921875 -0.0078125 C5.3125 0.125 5.3125 0.125 6.3125 1.125 C6.39987645 2.97869611 6.41948153 4.83567541 6.41015625 6.69140625 C6.40693359 7.81611328 6.40371094 8.94082031 6.40039062 10.09960938 C6.38782227 11.87561523 6.38782227 11.87561523 6.375 13.6875 C6.37048828 14.87537109 6.36597656 16.06324219 6.36132812 17.28710938 C6.34949675 20.23312226 6.33301287 23.17903681 6.3125 26.125 C5.34570312 26.09019531 4.37890625 26.05539062 3.3828125 26.01953125 C-9.48968312 25.50310338 -9.48968312 25.50310338 -20.78125 30.859375 C-28.25711981 38.76418816 -27.99522356 47.06025581 -28.06640625 57.4609375 C-28.08340073 58.7360318 -28.1003952 60.0111261 -28.11790466 61.32485962 C-28.16190415 64.69455688 -28.19828346 68.06413902 -28.23010254 71.43395996 C-28.27602749 76.20254789 -28.33165659 80.97099463 -28.39280701 85.7394104 C-28.424851 88.2756242 -28.45171359 90.8119095 -28.47303772 93.34823608 C-28.48652756 94.48677032 -28.5000174 95.62530457 -28.51391602 96.79833984 C-28.52342789 97.80536957 -28.53293976 98.81239929 -28.54273987 99.84994507 C-28.6875 102.125 -28.6875 102.125 -29.6875 103.125 C-31.54119611 103.21237645 -33.39817541 103.23198153 -35.25390625 103.22265625 C-36.37861328 103.21943359 -37.50332031 103.21621094 -38.66210938 103.21289062 C-39.84611328 103.20451172 -41.03011719 103.19613281 -42.25 103.1875 C-43.43787109 103.18298828 -44.62574219 103.17847656 -45.84960938 103.17382812 C-48.79562226 103.16199675 -51.74153681 103.14551287 -54.6875 103.125 C-54.710621 90.1038936 -54.72841384 77.08279205 -54.73931217 64.06166935 C-54.74454153 58.01612183 -54.75164014 51.9705883 -54.76293945 45.92504883 C-54.77376645 40.09605712 -54.77977643 34.26707891 -54.78237724 28.43807793 C-54.78423183 26.2088239 -54.78785308 23.97957065 -54.79323006 21.75032234 C-54.80043799 18.63960266 -54.80149105 15.52893951 -54.80102539 12.41821289 C-54.80462067 11.48673431 -54.80821594 10.55525574 -54.81192017 9.59555054 C-54.80155216 3.23905216 -54.80155216 3.23905216 -53.6875 2.125 C-51.91890807 2.02553547 -50.14638549 1.99419783 -48.375 1.9921875 C-47.29992187 1.99089844 -46.22484375 1.98960937 -45.1171875 1.98828125 C-43.98539063 1.99214844 -42.85359375 1.99601563 -41.6875 2 C-40.55570313 1.99613281 -39.42390625 1.99226562 -38.2578125 1.98828125 C-37.18273437 1.98957031 -36.10765625 1.99085938 -35 1.9921875 C-33.50919922 1.99387939 -33.50919922 1.99387939 -31.98828125 1.99560547 C-29.6875 2.125 -29.6875 2.125 -28.6875 3.125 C-28.45322222 5.14094582 -28.27413876 7.163474 -28.125 9.1875 C-27.99931641 10.84458984 -27.99931641 10.84458984 -27.87109375 12.53515625 C-27.81050781 13.38980469 -27.74992188 14.24445312 -27.6875 15.125 C-27.22601562 14.53332031 -26.76453125 13.94164062 -26.2890625 13.33203125 C-19.20949278 4.75539837 -11.23402101 -0.02999739 0 0 Z " fill="#0D2F46" transform="translate(941.6875,634.875)"/>
<path d="M0 0 C8.25 0 16.5 0 25 0 C25 33.33 25 66.66 25 101 C16.75 101 8.5 101 0 101 C-1.93006245 99.06993755 -1.12683226 96.17276871 -1.13552856 93.60401917 C-1.13350433 92.68346237 -1.1314801 91.76290558 -1.12939453 90.81445312 C-1.13114685 89.85030991 -1.13289917 88.88616669 -1.13470459 87.89280701 C-1.13912493 84.68893664 -1.13618447 81.48512098 -1.1328125 78.28125 C-1.13348549 76.06547027 -1.13445547 73.84969061 -1.13571167 71.63391113 C-1.13718889 66.98330993 -1.13503331 62.33272789 -1.13037109 57.68212891 C-1.1246738 51.70617396 -1.12795267 45.73026391 -1.13394356 39.75431061 C-1.13754852 35.17685606 -1.13641088 30.59941225 -1.13381577 26.0219574 C-1.13314632 23.81782526 -1.13397554 21.61369217 -1.13629532 19.40956116 C-1.13882078 16.33486328 -1.13498275 13.26023922 -1.12939453 10.18554688 C-1.13141876 9.26499008 -1.13344299 8.34443329 -1.13552856 7.39598083 C-1.11426228 1.11426228 -1.11426228 1.11426228 0 0 Z " fill="#0E324A" transform="translate(514,637)"/>
<path d="M0 0 C7.40349078 4.35713638 11.15090946 9.8589494 13.80859375 17.9765625 C15.9772381 27.2637513 14.9497949 36.822443 10.24609375 45.16015625 C6.25300398 50.98114542 1.18861908 54.70796031 -5.5 56.9375 C-22.07785147 58.13708356 -22.07785147 58.13708356 -28.5 52.9375 C-35.26111407 47.00057132 -38.74849514 39.85656918 -39.87890625 30.953125 C-40.25428661 21.60494325 -37.6834197 12.12363641 -31.5 4.9375 C-22.1386947 -2.27921536 -11.31215012 -5.25145477 0 0 Z " fill="#F9F9F7" transform="translate(724.5,660.0625)"/>
<path d="M0 0 C6.17494755 3.49450408 10.71028205 9.10701538 12.625 16 C12.625 17.32 12.625 18.64 12.625 20 C-3.215 20 -19.055 20 -35.375 20 C-34.2831315 12.35692048 -32.43773227 7.23485475 -26.3046875 2.3515625 C-18.14831917 -2.85527042 -9.01866912 -4.07824491 0 0 Z " fill="#F4F5F5" transform="translate(836.375,657)"/>
<path d="M0 0 C4.98047212 2.64942923 8.01507959 5.98324352 10.7109375 10.91015625 C11.3709375 13.88015625 12.0309375 16.85015625 12.7109375 19.91015625 C-3.1290625 19.91015625 -18.9690625 19.91015625 -35.2890625 19.91015625 C-33.26066305 10.7823587 -31.79768718 5.94649566 -24.1640625 1.03515625 C-16.69112915 -3.35555556 -7.92249919 -3.47619862 0 0 Z " fill="#F8F8F7" transform="translate(268.2890625,657.08984375)"/>
<path d="M0 0 C3.71010701 2.13263451 6.23067205 4.72893644 8.4375 8.375 C9.5130696 13.39432481 9.56783936 17.39112181 7.875 22.1875 C5.05299253 26.42051121 1.92271008 29.35909664 -3 31 C-9.12455118 31.50201239 -12.12517646 31.09928344 -17 27 C-21.08142118 22.4773441 -22.32364536 19.20853647 -22.2109375 13.0546875 C-21.72508058 8.32208116 -19.48257414 5.21959191 -16 2.1875 C-10.73895176 -1.64868101 -6.16270898 -1.52200237 0 0 Z " fill="#0E2F46" transform="translate(533,596)"/>
<path d="M0 0 C1.12019531 -0.00128906 2.24039063 -0.00257813 3.39453125 -0.00390625 C4.57402344 -0.00003906 5.75351562 0.00382813 6.96875 0.0078125 C8.73798828 0.00201172 8.73798828 0.00201172 10.54296875 -0.00390625 C12.22326172 -0.00197266 12.22326172 -0.00197266 13.9375 0 C14.97326172 0.00112793 16.00902344 0.00225586 17.07617188 0.00341797 C19.46875 0.1328125 19.46875 0.1328125 20.46875 1.1328125 C20.56511838 2.91708437 20.59062453 4.70520903 20.58900452 6.49208069 C20.59037918 7.65460861 20.59175385 8.81713654 20.59317017 10.01489258 C20.58957489 11.30169922 20.58597961 12.58850586 20.58227539 13.91430664 C20.58199352 15.27404274 20.58215125 16.633779 20.5827179 17.99351501 C20.58300587 21.69583028 20.57710912 25.39811342 20.57014394 29.10042119 C20.56391043 32.96550031 20.5633066 36.83058008 20.56211853 40.69566345 C20.55900521 48.01965932 20.5507918 55.34364034 20.54076904 62.66762966 C20.52960794 71.00364698 20.52409746 79.33966499 20.51907361 87.67568791 C20.50860919 104.82807138 20.49100973 121.98044037 20.46875 139.1328125 C19.80875 139.1328125 19.14875 139.1328125 18.46875 139.1328125 C18.46875 93.9228125 18.46875 48.7128125 18.46875 2.1328125 C10.87875 2.1328125 3.28875 2.1328125 -4.53125 2.1328125 C-4.53125 17.6428125 -4.53125 33.1528125 -4.53125 49.1328125 C-5.19125 48.8028125 -5.85125 48.4728125 -6.53125 48.1328125 C-6.55651945 41.4576091 -6.57408268 34.78241793 -6.58618164 28.10717773 C-6.59122325 25.83438659 -6.59805637 23.5615987 -6.60668945 21.28881836 C-6.61876261 18.02977699 -6.62447987 14.77077833 -6.62890625 11.51171875 C-6.63406754 10.48881241 -6.63922882 9.46590607 -6.64454651 8.41200256 C-6.64462204 7.47110275 -6.64469757 6.53020294 -6.64477539 5.56079102 C-6.646996 4.72806168 -6.64921661 3.89533234 -6.65150452 3.03736877 C-6.39499945 -1.02508434 -3.39994383 0.00370249 0 0 Z " fill="#1D2E42" transform="translate(743.53125,597.8671875)"/>
<path d="M0 0 C0.66 0 1.32 0 2 0 C2 32.34 2 64.68 2 98 C9.59 98 17.18 98 25 98 C24.98952637 96.1835498 24.97905273 94.36709961 24.96826172 92.49560547 C24.93595537 86.48062729 24.91300495 80.46567376 24.89637566 74.45063591 C24.88595757 70.80525726 24.87183467 67.15997286 24.84912109 63.51464844 C24.82732196 59.99387821 24.81541653 56.4731984 24.81024551 52.95236588 C24.80477522 50.96161159 24.78917359 48.97089346 24.77340698 46.98019409 C24.77325592 45.75938141 24.77310486 44.53856873 24.77294922 43.28076172 C24.768508 42.21042694 24.76406677 41.14009216 24.75949097 40.037323 C25.01930134 36.7562487 25.83961773 34.06919549 27 31 C28.11531555 34.34594665 28.0898175 36.76785765 28.03759766 40.29150391 C28.02072906 41.5893985 28.00386047 42.88729309 27.98648071 44.22451782 C27.96259901 45.64187041 27.93845334 47.05921858 27.9140625 48.4765625 C27.89229346 49.92719054 27.87084392 51.3778234 27.84970093 52.82846069 C27.80422624 55.86649896 27.75500118 58.90444731 27.703125 61.94238281 C27.63677965 65.84432514 27.57955853 69.74633817 27.52509499 73.6484623 C27.4823455 76.64240534 27.43489903 79.63625955 27.38599777 82.63010788 C27.36304015 84.06945969 27.34153805 85.50883545 27.32149124 86.94823074 C27.29282288 88.95465596 27.25718733 90.96097803 27.22119141 92.96728516 C27.20263092 94.11073395 27.18407043 95.25418274 27.16494751 96.43228149 C27 99 27 99 26 100 C24.15840977 100.09959621 22.31303033 100.13080411 20.46875 100.1328125 C19.34855469 100.13410156 18.22835937 100.13539063 17.07421875 100.13671875 C15.89472656 100.13285156 14.71523438 100.12898437 13.5 100.125 C11.73076172 100.13080078 11.73076172 100.13080078 9.92578125 100.13671875 C8.80558594 100.13542969 7.68539062 100.13414062 6.53125 100.1328125 C5.49548828 100.13168457 4.45972656 100.13055664 3.39257812 100.12939453 C1 100 1 100 0 99 C-0.09532328 95.92545239 -0.1255138 92.87340842 -0.11352539 89.79858398 C-0.11367142 88.83283447 -0.11381744 87.86708496 -0.1139679 86.87207031 C-0.11326834 83.66338901 -0.10547397 80.45476497 -0.09765625 77.24609375 C-0.09579222 75.02791882 -0.09436825 72.80974348 -0.09336853 70.59156799 C-0.08954216 64.74059929 -0.07971086 58.88965523 -0.06866455 53.03869629 C-0.05845299 47.07332696 -0.05387146 41.10795367 -0.04882812 35.14257812 C-0.03808869 23.42837456 -0.02101085 11.71418933 0 0 Z " fill="#1D3043" transform="translate(554,638)"/>
<path d="M0 0 C0.33 0 0.66 0 1 0 C1 33 1 66 1 100 C-7.25 100 -15.5 100 -24 100 C-25.92146774 98.07853226 -25.12016542 95.21281685 -25.12442017 92.65637207 C-25.12082489 91.74359497 -25.11722961 90.83081787 -25.11352539 89.89038086 C-25.11367142 88.93438492 -25.11381744 87.97838898 -25.1139679 86.99342346 C-25.11326835 83.81720755 -25.10547403 80.64104948 -25.09765625 77.46484375 C-25.09579222 75.26908907 -25.09436825 73.07333398 -25.09336853 70.87757874 C-25.08954219 65.08579367 -25.07971091 59.2940335 -25.06866455 53.5022583 C-25.05845293 47.59721209 -25.05387145 41.69216187 -25.04882812 35.78710938 C-25.03808875 24.19139528 -25.02101093 12.59569971 -25 1 C-24.34 1 -23.68 1 -23 1 C-23 33.01 -23 65.02 -23 98 C-15.41 98 -7.82 98 0 98 C0 65.66 0 33.32 0 0 Z " fill="#02162B" transform="translate(538,638)"/>
<path d="M0 0 C2 2 2 2 2.24723816 4.89125061 C2.24581314 6.12733566 2.24438812 7.36342072 2.24291992 8.63696289 C2.24481827 9.31839859 2.24671661 9.99983429 2.24867249 10.70191956 C2.25238345 12.95894805 2.24167269 15.21565625 2.23046875 17.47265625 C2.22927713 19.03681907 2.22882375 20.60098262 2.2290802 22.16514587 C2.22751484 25.44453403 2.21922051 28.72381311 2.20581055 32.00317383 C2.18880659 36.21577672 2.18499657 40.42825979 2.18575573 44.64089298 C2.18548439 47.87069349 2.18000929 51.10046758 2.17275429 54.33025932 C2.16956282 55.88406614 2.1675991 57.43787595 2.16686058 58.99168587 C2.16470285 61.15865351 2.15597147 63.32549162 2.14526367 65.49243164 C2.13954597 67.34536583 2.13954597 67.34536583 2.13371277 69.23573303 C2 72 2 72 1 73 C-0.84159023 73.09959621 -2.68696967 73.13080411 -4.53125 73.1328125 C-5.65144531 73.13410156 -6.77164063 73.13539063 -7.92578125 73.13671875 C-9.10527344 73.13285156 -10.28476562 73.12898437 -11.5 73.125 C-13.26923828 73.13080078 -13.26923828 73.13080078 -15.07421875 73.13671875 C-16.19441406 73.13542969 -17.31460938 73.13414062 -18.46875 73.1328125 C-19.50451172 73.13168457 -20.54027344 73.13055664 -21.60742188 73.12939453 C-24 73 -24 73 -25 72 C-25.09409479 69.97505769 -25.11743122 67.9468013 -25.11352539 65.91967773 C-25.11344986 64.61840439 -25.11337433 63.31713104 -25.11329651 61.97642517 C-25.10818909 60.54548098 -25.10297308 59.11453718 -25.09765625 57.68359375 C-25.09579203 56.2277074 -25.09436815 54.77182043 -25.09336853 53.31593323 C-25.08954365 49.47720621 -25.07971364 45.63851681 -25.06866455 41.79980469 C-25.05844978 37.88542184 -25.05387077 33.97103294 -25.04882812 30.05664062 C-25.03809134 22.37107657 -25.02101529 14.68554355 -25 7 C-22.67558185 10.48662723 -22.75598259 11.82577923 -22.77294922 15.94018555 C-22.77310028 17.16122482 -22.77325134 18.3822641 -22.77340698 19.64030457 C-22.78372955 20.95912125 -22.79405212 22.27793793 -22.8046875 23.63671875 C-22.80841839 25.00006401 -22.811265 26.36341196 -22.81326294 27.72676086 C-22.82089347 31.31234154 -22.84053685 34.89775979 -22.8626709 38.48327637 C-22.88314189 42.14312544 -22.89226733 45.80300079 -22.90234375 49.46289062 C-22.92378342 56.64200965 -22.95896069 63.82096136 -23 71 C-15.41 71 -7.82 71 0 71 C0 47.57 0 24.14 0 0 Z " fill="#203447" transform="translate(647,665)"/>
<path d="M0 0 C0.99 0.33 1.98 0.66 3 1 C4.45706917 1.11349848 5.91844959 1.17601475 7.37963867 1.20532227 C8.26032516 1.22526749 9.14101166 1.24521271 10.04838562 1.26576233 C10.99534805 1.28247482 11.94231049 1.29918732 12.91796875 1.31640625 C13.89034988 1.33718735 14.86273102 1.35796844 15.86457825 1.37937927 C18.97214665 1.44478748 22.07979985 1.50371929 25.1875 1.5625 C27.29362858 1.60569351 29.39974856 1.64930807 31.50585938 1.69335938 C36.67048591 1.80045999 41.83519778 1.90175219 47 2 C47.33 1.34 47.66 0.68 48 0 C48 0.99 48 1.98 48 3 C32.16 3 16.32 3 0 3 C0 2.01 0 1.02 0 0 Z " fill="#B9C4CA" transform="translate(233,674)"/>
<path d="M0 0 C8.25 0 16.5 0 25 0 C26.2077558 3.62326739 25.54311128 4.64146369 24 8 C23.34 7.67 22.68 7.34 22 7 C22 5.68 22 4.36 22 3 C19.36 3 16.72 3 14 3 C14 2.67 14 2.34 14 2 C7.07 1.505 7.07 1.505 0 1 C0 0.67 0 0.34 0 0 Z " fill="#1B4055" transform="translate(381,637)"/>
<path d="M0 0 C4.09307991 0.77627378 6.28147251 1.81333391 9.3125 4.62109375 C11.84854525 8.61385546 11.13361 13.15037591 10.625 17.6875 C9.965 18.0175 9.305 18.3475 8.625 18.6875 C8.69460938 17.69169922 8.69460938 17.69169922 8.765625 16.67578125 C8.93854506 12.44541556 9.01172555 9.47706467 7.125 5.625 C3.61076469 2.90146764 1.0314182 2.90782091 -3.375 2.6875 C-3.375 3.3475 -3.375 4.0075 -3.375 4.6875 C-5.025 5.0175 -6.675 5.3475 -8.375 5.6875 C-5.7006058 2.44581006 -4.17855991 0.85118813 0 0 Z " fill="#0D1A2C" transform="translate(267.375,317.3125)"/>
<path d="M0 0 C-0.81404297 0.36351562 -0.81404297 0.36351562 -1.64453125 0.734375 C-5.81953088 2.69023068 -8.37536702 4.12554179 -11 8 C-13.9271119 10.02646209 -16.49388042 11.3507186 -20 12 C-6.20280811 -2.21528861 -6.20280811 -2.21528861 0 0 Z " fill="#091B30" transform="translate(599,638)"/>
<path d="M0 0 C0.66 1.32 1.32 2.64 2 4 C2.99 3.34 3.98 2.68 5 2 C5 2.66 5 3.32 5 4 C5.66 4 6.32 4 7 4 C5.71480435 6.86697492 4.42870746 8.97607712 2 11 C1.34 11 0.68 11 0 11 C0 7.37 0 3.74 0 0 Z " fill="#CCD6DB" transform="translate(579,638)"/>
<path d="M0 0 C-0.86882812 0.06058594 -1.73765625 0.12117187 -2.6328125 0.18359375 C-3.78523438 0.26738281 -4.93765625 0.35117188 -6.125 0.4375 C-7.26195312 0.51871094 -8.39890625 0.59992188 -9.5703125 0.68359375 C-12.7540478 0.97730965 -15.85510907 1.43124313 -19 2 C-18 0 -18 0 -14.875 -1.125 C-9.27410337 -2.38971859 -5.08030341 -2.78918619 0 0 Z " fill="#0B223A" transform="translate(388,230)"/>
<path d="M0 0 C1.8253125 0.4640625 1.8253125 0.4640625 3.6875 0.9375 C5.97656746 1.51177482 8.24553178 2.04790864 10.5625 2.5 C13.76245727 3.15640149 16.86748661 4.07867253 20 5 C20 5.33 20 5.66 20 6 C13.03353618 6.52577085 7.30716757 5.03719493 1 2 C0.67 1.34 0.34 0.68 0 0 Z " fill="#0C1C30" transform="translate(365,360)"/>
<path d="M0 0 C3.78716158 1.50362259 7.55245187 3.05487001 11.3125 4.625 C12.38113281 5.07101562 13.44976563 5.51703125 14.55078125 5.9765625 C15.76314453 6.48316406 15.76314453 6.48316406 17 7 C13.29488369 8.04605655 10.76735661 8.02032575 7 7 C4.8125 5.125 4.8125 5.125 3 3 C2.4225 2.4225 1.845 1.845 1.25 1.25 C0.8375 0.8375 0.425 0.425 0 0 Z " fill="#09172C" transform="translate(599,336)"/>
<path d="M0 0 C0.33 0 0.66 0 1 0 C1.33 3.96 1.66 7.92 2 12 C1.01 12 0.02 12 -1 12 C-1.02687279 10.18757948 -1.04633715 8.37504767 -1.0625 6.5625 C-1.07410156 5.55316406 -1.08570313 4.54382813 -1.09765625 3.50390625 C-1 1 -1 1 0 0 Z " fill="#D9E2E5" transform="translate(347,291)"/>
<path d="M0 0 C0.33 1.32 0.66 2.64 1 4 C-4.03733166 5.5111995 -8.88171027 4.64599773 -14 4 C-14 3.67 -14 3.34 -14 3 C-9.71 3 -5.42 3 -1 3 C-0.67 2.01 -0.34 1.02 0 0 Z " fill="#09192D" transform="translate(946,656)"/>
<path d="M0 0 C0.33 0 0.66 0 1 0 C0.67 3.96 0.34 7.92 0 12 C-2 10 -2 10 -2.25 6.5625 C-2 3 -2 3 0 0 Z " fill="#061B2F" transform="translate(560,513)"/>
<path d="M0 0 C2.31 1.65 4.62 3.3 7 5 C6.67 6.32 6.34 7.64 6 9 C5.01 9.495 5.01 9.495 4 10 C1.125 3.375 1.125 3.375 0 0 Z " fill="#EFF5F5" transform="translate(813,399)"/>
<path d="M0 0 C0.33 1.32 0.66 2.64 1 4 C-0.96466413 5.06775224 -2.96855359 6.06553465 -5 7 C-5.66 6.67 -6.32 6.34 -7 6 C-4.69 4.02 -2.38 2.04 0 0 Z " fill="#0A2035" transform="translate(681,642)"/>
<path d="M0 0 C3.875 1.75 3.875 1.75 5 4 C3.68 4.33 2.36 4.66 1 5 C0.67 4.34 0.34 3.68 0 3 C-1.98 3.99 -1.98 3.99 -4 5 C-2.68 3.35 -1.36 1.7 0 0 Z " fill="#031327" transform="translate(288,707)"/>
<path d="M0 0 C0.33 0 0.66 0 1 0 C1 3.96 1 7.92 1 12 C0.67 12 0.34 12 0 12 C-0.33 10.35 -0.66 8.7 -1 7 C-1.33 7 -1.66 7 -2 7 C-2.125 4.625 -2.125 4.625 -2 2 C-1.34 1.34 -0.68 0.68 0 0 Z " fill="#DDE8EA" transform="translate(556,287)"/>
<path d="M0 0 C0.66 0.66 1.32 1.32 2 2 C-1.96 2 -5.92 2 -10 2 C-10 1.67 -10 1.34 -10 1 C-3.375 -1.125 -3.375 -1.125 0 0 Z " fill="#E3E9EA" transform="translate(264,718)"/>
<path d="M0 0 C0.33 1.32 0.66 2.64 1 4 C-2.3 4.33 -5.6 4.66 -9 5 C-6.3534665 2.3534665 -3.43778736 1.40058003 0 0 Z " fill="#0B1B31" transform="translate(726,713)"/>
<path d="M0 0 C0 0.99 0 1.98 0 3 C-4.29 2.67 -8.58 2.34 -13 2 C-13 1.67 -13 1.34 -13 1 C-11.20843648 0.83222817 -9.4167455 0.66581706 -7.625 0.5 C-6.62726562 0.4071875 -5.62953125 0.314375 -4.6015625 0.21875 C-2 0 -2 0 0 0 Z " fill="#E7EBEB" transform="translate(849,673)"/>
<path d="M0 0 C3 1 3 1 6 4 C3.03 4 0.06 4 -3 4 C-2.67 3.01 -2.34 2.02 -2 1 C-1.34 0.67 -0.68 0.34 0 0 Z " fill="#163851" transform="translate(408,228)"/>
<path d="M0 0 C0.66 0.33 1.32 0.66 2 1 C1.8125 2.8125 1.8125 2.8125 1 5 C-1.5625 6.75 -1.5625 6.75 -4 8 C-4.33 7.34 -4.66 6.68 -5 6 C-4.01 5.67 -3.02 5.34 -2 5 C-0.78130071 2.49552484 -0.78130071 2.49552484 0 0 Z " fill="#112539" transform="translate(461,522)"/>
<path d="M0 0 C-0.33 0.66 -0.66 1.32 -1 2 C-3.875 2.125 -3.875 2.125 -7 2 C-7.66 1.34 -8.32 0.68 -9 0 C-5.67465243 -1.10844919 -3.37817425 -0.84454356 0 0 Z " fill="#1C364B" transform="translate(351,378)"/>
</svg>
