<svg height="512" viewBox="0 0 58 58" width="512" xmlns="http://www.w3.org/2000/svg"><g id="Page-1" fill="none" fill-rule="evenodd"><g id="064---Good-Match"><path id="Path" d="m41 24c-.7124195-.0038335-1.4242113.0429509-2.13.14-1.0746961-2.1747296-2.8352704-3.9353039-5.01-5.01.0970491-.7057887.1438335-1.4175805.14-2.13-.0049706-9.38152519-7.6124721-16.98365423-16.9939984-16.98199735-9.38152637.00165688-16.98634207 7.60647258-16.98799895 16.98799895-.00165688 9.3815263 7.60047216 16.9890278 16.98199735 16.9939984.7124195.0038335 1.4242113-.0429509 2.13-.14 1.0746961 2.1747296 2.8352704 3.9353039 5.01 5.01-.0970491.7057887-.1438335 1.4175805-.14 2.13-.0007708 5.8652281 3.023335 11.3161788 8 14.42 5.5077758 3.4370599 12.4922242 3.4370599 18 0 6.433542-4.0169626 9.4277896-11.8098597 7.3392309-19.1012501s-8.7546117-12.3171741-16.3392309-12.3187499z" fill="#b0d3f0"/><path id="Path" d="m34 42h-.5c-.893164 0-1.7184816-.4764973-2.1650636-1.25s-.446582-1.7264973 0-2.5 1.2718996-1.25 2.1650636-1.25h15c1.3807118.0000001 2.4999999 1.1192882 2.4999999 2.5s-1.1192881 2.4999999-2.4999999 2.5z" fill="#f9c795"/><path id="Path" d="m23.929 17c-.3892811 2.7015096-2.313298 4.9303869-4.929 5.71v.29c2.7762694.1075462 5.4558676 1.0483674 7.69 2.7 2.05-4.28-.42-6.95-1.93-8.71-.0864027.0083236-.1732132.0116625-.26.01h-.5" fill="#a65a47"/><path id="Path" d="m40 29v.08c-.014665 3.0581372-1.3093936 5.9703698-3.57 8.03-.7285129.6722952-1.546206 1.2409788-2.43 1.69-3.0921804 1.5750591-6.7457685 1.6009974-9.86.07-3.7597987-1.8516763-6.1407045-5.678963-6.14-9.87.0011292-.4411765.0278407-.8819163.08-1.32.2405669-2.0367867 1.0517255-3.964155 2.34-5.56 0-.0055228.0044772-.01.01-.01.6758683-.8509992 1.4785825-1.593004 2.38-2.2 3.2740853-2.2310049 7.4949767-2.5289502 11.05-.78 2.1747296 1.0746961 3.9353039 2.8352704 5.01 5.01.7477222 1.5107129 1.1345415 3.1743781 1.13 4.86z" fill="#3b97d3"/><path id="Path" d="m26 34c-.2651948-.0000566-.5195073-.1054506-.707-.293l-2-2c-.3789722-.3923789-.3735524-1.0160848.0121814-1.4018186s1.0094397-.3911536 1.4018186-.0121814l1.293 1.293 7.293-7.293c.3923789-.3789722 1.0160848-.3735524 1.4018186.0121814s.3911536 1.0094397.0121814 1.4018186l-8 8c-.1874927.1875494-.4418052.2929434-.707.293z" fill="#fff"/><path id="Path" d="m19.13 33.86c-.7057887.0970491-1.4175805.1438335-2.13.14-4.6666031.0070542-9.12869702-1.9145775-12.33-5.31.68006574-1.156778 1.57635852-2.1718975 2.64-2.99 2.23413245-1.6516326 4.9137306-2.5924538 7.69-2.7v3c.0032948 1.1032019.8967981 1.9967052 2 2 .3840175.0045752.7604601-.1069633 1.08-.32-.0521593.4380837-.0788708.8788235-.08 1.32-.0019719 1.6853297.3847127 3.3484158 1.13 4.86z" fill="#ff5364"/><path id="Path" d="m10 12 1 5h-1.5c-.08678679.0016625-.17359729-.0016764-.26-.01-1.34053222-.1182848-2.34689783-1.2764906-2.27687406-2.6204083.07002376-1.3439176 1.19130792-2.3912639 2.53687406-2.3695917z" fill="#f09372"/><path id="Path" d="m27 14.5c0 1.3807119-1.1192881 2.5-2.5 2.5h-1.5l1-5h.5c.6636932-.0021341 1.3008186.2605727 1.770123.729877.4693043.4693044.7320111 1.1064298.729877 1.770123z" fill="#f09372"/><path id="Path" d="m20.42 22.12c-1.2882745 1.595845-2.0994331 3.5232133-2.34 5.56-.3195399.2130367-.6959825.3245752-1.08.32-1.1032019-.0032948-1.9967052-.8967981-2-2v-3.29c1.8128882.5358614 3.7648701.3233762 5.42-.59z" fill="#f9c795"/><path id="Path" d="m24 12v4c.0044322 1.3931814-.4101871 2.7555019-1.19 3.91-.9014175.606996-1.7041317 1.3490008-2.38 2.2-.0026522 0-.0051957.0010536-.0070711.0029289-.0018753.0018754-.0029289.0044189-.0029289.0070711-2.1704494 1.2077344-4.8179098 1.1769228-6.9596635-.0809978-2.1417536-1.2579205-3.4580679-3.5551609-3.4603365-6.0390022v-4s7-1 7-4c0 3 7 4 7 4z" fill="#fdd7ad"/><path id="Path" d="m24 11v1s-7-1-7-4c0 3-7 4-7 4v-1c-.00000004-2.50085915 1.3341924-4.81174833 3.5-6.06217791 2.1658075-1.25042959 4.8341925-1.25042959 7 0 2.1658076 1.25042958 3.5 3.56131876 3.5 6.06217791z" fill="#a65a47"/><path id="Path" d="m10.071 17c.3892811 2.7015096 2.313298 4.9303869 4.929 5.71v.29c-2.7762694.1075462-5.45586755 1.0483674-7.69 2.7-2.05-4.28.42-6.95 1.93-8.71.08640271.0083236.17321321.0116625.26.01h.5" fill="#a65a47"/><path id="Path" d="m41 48v3l-2.61.52c-.5870173.116709-1.1954503-.0356102-1.6582372-.4151342-.4627869-.3795241-.7312821-.9463593-.7317628-1.5448658v-2.56h1.4c1.0848232.6589343 2.3307441 1.0050234 3.6 1z" fill="#fff"/><path id="Path" d="m41 51v7c-4.7537526-.0024273-9.2898063-1.9930696-12.51-5.49l.01-.01c.1674671-.8777044.5334662-1.705478 1.07-2.42 1.5177857-1.9423782 3.8449435-3.0782968 6.31-3.08h.12v2.56c.0004807.5985065.2689759 1.1653417.7317628 1.5448658.4627869.379524 1.0712199.5318432 1.6582372.4151342z" fill="#3b97d3"/><path id="Path" d="m46 47v2.56c-.0004807.5985065-.2689759 1.1653417-.7317628 1.5448658-.4627869.379524-1.0712199.5318432-1.6582372.4151342l-2.61-.52v-3c1.2692559.0050234 2.5151768-.3410657 3.6-1z" fill="#ecf0f1"/><path id="Path" d="m53.51 52.51c-1.0335029 1.1237582-2.2141971 2.1026243-3.51 2.91-2.6996232 1.6848909-5.8177333 2.5787492-9 2.58v-7l2.61.52c.5870173.116709 1.1954503-.0356102 1.6582372-.4151342.4627869-.3795241.7312821-.9463593.7317628-1.5448658v-2.56h.12c2.4650565.0017032 4.7922143 1.1376218 6.31 3.08.5365338.714522.9025329 1.5422956 1.07 2.42z" fill="#2980ba"/><path id="Path" d="m48 38v3c.0034207 2.4594724-1.2883499 4.7390677-3.4 6-2.2148148 1.3333333-4.9851852 1.3333333-7.2 0-2.1116501-1.2609323-3.4034207-3.5405276-3.4-6v-2.2c.883794-.4490212 1.7014871-1.0177048 2.43-1.69 2.67-.01 6.57-.47 6.57-3.11 0 0 1 4 5 4z" fill="#fdd7ad"/><path id="Path" d="m48 36v2c-4 0-5-4-5-4 0 2.64-3.9 3.1-6.57 3.11 2.2606064-2.0596302 3.555335-4.9718628 3.57-8.03.330182-.0572191.6649206-.0839982 1-.08 3.8659932 0 7 3.1340068 7 7z" fill="#a56a43"/><g fill="#285680"><path id="Path" d="m34 54v2.49c-.6901746-.3108697-1.358386-.6683628-2-1.07v-1.42c0-.5522847.4477153-1 1-1s1 .4477153 1 1z"/><path id="Path" d="m50 54v1.42c-.641614.4016372-1.3098254.7591303-2 1.07v-2.49c0-.5522847.4477153-1 1-1s1 .4477153 1 1z"/></g></g></g></svg>