<svg id="Layer_1" height="512" viewBox="0 0 50 50" width="512" xmlns="http://www.w3.org/2000/svg"><g><g><g fill="#f5b948"><path d="m33.6999 14.4609s-.252 1.4416-.2823 2.0263c-.01.1311-.0403.2621-.0907.3831-.1512.3629-.5141.998-1.0989.8267l.1311-.867v-.0202l.1814-1.1694c.0202-.3529.0303-.7057.0101-1.0686l.2319-.3831c.0001.0001.8468-.5645.9174.2722z"/><path d="m17.9936 17.7272c-.4738 0-.7762-.5343-.9073-.8569-.0505-.121-.0807-.252-.0908-.3831-.0302-.5847-.2822-2.0263-.2822-2.0263.0705-.8367.9173-.2721.9173-.2721l.1613.2721c-.131.3428-.2721.5444-.3024.5948-.0101 0-.0101.0101-.0101.0101z"/></g><path d="m46.9811 49.0893h-43.9622c-1.1969 0-2.1413-1.0367-2.006-2.2259.3631-3.1909 1.0048-6.7023 1.4761-9.0346.3226-1.6332 1.4517-2.9941 3.0042-3.6191 5.9414-2.4203 12.1185-4.4141 13.1658-7.7422h1.0081c1.6735 2.0968 5.3329 4.8086 5.3329 4.8086s3.6594-2.7118 5.3429-4.8087h.998c1.0578 3.3614 7.3219 5.3596 13.1759 7.7321 1.5424.6351 2.6816 1.996 3.0042 3.6392.4632 2.3242 1.1033 5.8341 1.4661 9.0247.1352 1.1893-.8092 2.2259-2.006 2.2259z" fill="#444445"/><path d="m22.4198 31.9155.7378 3.163c.055.2357.2652.4025.5072.4025h2.6718c.2421 0 .4522-.1668.5072-.4025l.7378-3.163c.0762-.3267-.1718-.6392-.5072-.6392h-4.1474c-.3354 0-.5834.3125-.5072.6392z" fill="#d75548"/><path d="m27.5937 49.0877-1.2348-13.6067h-2.7163l-1.2348 13.6067z" fill="#e9715f"/><path d="m30.9389 25.6313-.0124.0311c-.0062-.0186-.0124-.0311-.0124-.0311-1.1566 2.1143-5.9139 5.6465-5.9139 5.6465s-4.7572-3.5322-5.9076-5.6465c0 0-.0062.0062-.0124.0249l-.0124-.0249c.2861-.9328.3793-1.735.3855-2.3444 1.0939 1.771 3.3198 3.7982 5.7397 4.0358 2.1321-.2081 4.2251-1.8717 5.3791-3.5197.0435.5224.1554 1.138.3668 1.8283z" fill="#f5b948"/><path d="m32.5433 15.6381-.1803 1.1691c0 .0062-.0062.0186-.0062.0249l-.6654 4.2721c-.505 3.1604-3.8266 5.9577-6.4984 6.2186-2.85-.2798-5.9771-3.2413-6.5233-6.0817l-1.1877-6.175s0-.0062.0062-.0124c.0933-.1244 1.0136-1.4862.4602-3.6005-.1057-.3918-.1244-.8022-.0746-1.2126.1182-1.0447.5286-2.618 1.965-1.5919 0 0 4.1042.9266 8.109-1.1007 1.0882-.5535 2.4688-.286 3.128.74.5278.8326 1.6301 5.058 1.4675 7.3501z" fill="#ffca67"/><path d="" fill="#c7c7c7" stroke="#444445" stroke-miterlimit="10" stroke-width=".2"/><g fill="#696967"><path d="m28.521 49.0877h3.3534c3.0216-5.9971 5.8293-11.8778 6.4582-13.2002.0728-.153.0096-.3359-.142-.4116l-2.9048-1.4495 1.6143-.8749c.1657-.0898.2168-.3074.1063-.4601-1.9565-2.7024-3.6453-4.0603-5.6756-5.835 1.0787 5.5627-.7294 14.5863-2.8098 22.2313z"/><path d="m18.1261 49.0877h3.3533c-2.0804-7.645-3.8885-16.6686-2.8097-22.2314-2.014 1.7604-3.7129 3.1241-5.6756 5.835-.1106.1527-.0595.3703.1062.4601l1.6143.8749-2.9048 1.4495c-.1516.0757-.2148.2586-.142.4116.629 1.3225 3.4367 7.2032 6.4583 13.2003z"/></g><g fill="#e4e4e3"><path d="m25.0008 31.2763s4.7582-3.5283 5.9112-5.6452c0 0 2.2024 4.1924-1.3846 10.8338-.0001 0-2.032-4.9452-4.5266-5.1886z"/><path d="m25.0008 31.2763s-4.7582-3.5283-5.9112-5.6452c0 0-2.2024 4.1924 1.3846 10.8338 0 0 2.0319-4.9452 4.5266-5.1886z"/></g><path d="m17.4831 15.0681s1.0471-1.3962.4659-3.6122c-.2852-1.0874.0491-4.1225 1.8871-2.8096 0 0 4.1644.9445 8.1942-1.144 1.1403-.591 3.2931-.3578 3.6401 2.6146 0 0 1.1374 4.0198.4021 6.7159h.3109s.5904-3.7746 1.1787-4.4119c0 0 2.5308-7.5003-2.4357-8.7258 0 0-2.1723-4.559-9.1333-2.0099-2.7259.9982-6.182 5.1617-5.4061 8.0099.409 1.5015 1.1903 4.6009.8961 5.373z" fill="#444445"/></g></g></svg>